<svg xmlns="http://www.w3.org/2000/svg" xmlns:xlink="http://www.w3.org/1999/xlink" version="1.1" x="0px" y="0px" viewBox="0 0 48 60" style="enable-background:new 0 0 48 48;" xml:space="preserve"><g><path d="M6,26.5c-0.28,0-0.5,0.22-0.5,0.5v13c0,0.28,0.22,0.5,0.5,0.5h4c0.28,0,0.5-0.22,0.5-0.5V27c0-0.28-0.22-0.5-0.5-0.5H6z"/><path d="M14,18.5c-0.28,0-0.5,0.22-0.5,0.5v21c0,0.28,0.22,0.5,0.5,0.5h4c0.28,0,0.5-0.22,0.5-0.5V19c0-0.28-0.22-0.5-0.5-0.5H14z"/><path d="M22,40.5h4c0.28,0,0.5-0.22,0.5-0.5V24c0-0.28-0.22-0.5-0.5-0.5h-4c-0.28,0-0.5,0.22-0.5,0.5v16   C21.5,40.28,21.72,40.5,22,40.5z"/><path d="M30,40.5h4c0.28,0,0.5-0.22,0.5-0.5V21c0-0.28-0.22-0.5-0.5-0.5h-4c-0.28,0-0.5,0.22-0.5,0.5v19   C29.5,40.28,29.72,40.5,30,40.5z"/><path d="M38,13.5c-0.28,0-0.5,0.22-0.5,0.5v26c0,0.28,0.22,0.5,0.5,0.5h4c0.28,0,0.5-0.22,0.5-0.5V14c0-0.28-0.22-0.5-0.5-0.5H38z"/><path d="M44,41.5H4.5V6c0-0.28-0.22-0.5-0.5-0.5S3.5,5.72,3.5,6v36c0,0.28,0.22,0.5,0.5,0.5h40c0.28,0,0.5-0.22,0.5-0.5   S44.28,41.5,44,41.5z"/><path d="M25.5,6.53c-3.35,0.26-6,3.06-6,6.47c0,1.61,0.59,3.09,1.57,4.22l4.43-4.43V6.53z"/><path d="M26.5,6.53v5.97h5.97C32.23,9.32,29.68,6.77,26.5,6.53z"/><path d="M32.47,13.5h-6.27l-4.43,4.43c1.14,0.98,2.61,1.57,4.22,1.57C29.42,19.5,32.22,16.85,32.47,13.5z"/></g><text x="0" y="63" fill="#000000" font-size="5px" font-weight="bold" font-family="'Helvetica Neue', Helvetica, Arial-Unicode, Arial, Sans-serif">Created by newstudiodesign10</text><text x="0" y="68" fill="#000000" font-size="5px" font-weight="bold" font-family="'Helvetica Neue', Helvetica, Arial-Unicode, Arial, Sans-serif">from the Noun Project</text></svg>