<svg xmlns="http://www.w3.org/2000/svg" xmlns:xlink="http://www.w3.org/1999/xlink" version="1.1" x="0px" y="0px" viewBox="0 0 69 86.25" style="enable-background:new 0 0 69 69;" xml:space="preserve"><g><path d="M15.24179,54.67853h38.5166V14.32599h-38.5166V54.67853z M17.35654,17.39532c0-0.55273,0.44775-1,1-1h8.85254   c0.55225,0,1,0.44727,1,1s-0.44775,1-1,1h-7.85254v7.01465c0,0.55273-0.44775,1-1,1s-1-0.44727-1-1V17.39532z"/><path d="M64.57999,21.87c0.54999,0,1-0.45001,1-1c0-0.56-0.45001-1-1-1h-4.15997v-4.82001h4.15997c0.54999,0,1-0.45001,1-1   c0-0.56-0.45001-1-1-1h-4.15997v-2.31c0-1.70001-1.38-3.08002-3.07001-3.08002h-1.39001V3.5c0-0.54999-0.45001-1-1-1   c-0.56,0-1,0.45001-1,1v4.15997h-4.82001V3.5c0-0.54999-0.45001-1-1-1s-1,0.45001-1,1v4.15997h-4.82001V3.5   c0-0.54999-0.45001-1-1-1s-1,0.45001-1,1v4.15997h-4.82001V3.5c0-0.54999-0.44995-1-1-1c-0.54999,0-1,0.45001-1,1v4.15997h-4.82001   V3.5c0-0.54999-0.44995-1-1-1c-0.54999,0-1,0.45001-1,1v4.15997h-4.81995V3.5c0-0.54999-0.45001-1-1-1c-0.55005,0-1,0.45001-1,1   v4.15997h-4.82001V3.5c0-0.54999-0.44-1-1-1c-0.55005,0-1,0.45001-1,1v4.15997h-1.39001c-1.69,0-3.07001,1.38-3.07001,3.08002v2.31   H4.42001c-0.55005,0-1,0.44-1,1c0,0.54999,0.44995,1,1,1h4.15997V19.87H4.42001c-0.55005,0-1,0.44-1,1c0,0.54999,0.44995,1,1,1   h4.15997v4.81H4.42001c-0.55005,0-1,0.45001-1,1c0,0.56,0.44995,1,1,1h4.15997V33.5H4.42001c-0.55005,0-1,0.45001-1,1   c0,0.56,0.44995,1,1,1h4.15997v4.82001H4.42001c-0.55005,0-1,0.45001-1,1s0.44995,1,1,1h4.15997v4.82001H4.42001   c-0.55005,0-1,0.45001-1,1s0.44995,1,1,1h4.15997v4.82001H4.42001c-0.55005,0-1,0.44995-1,1c0,0.54999,0.44995,1,1,1h4.15997v2.31   c0,1.69,1.38,3.07001,3.07001,3.07001h1.39001V65.5c0,0.56,0.44995,1,1,1c0.56,0,1-0.44,1-1v-4.15997h4.82001V65.5   c0,0.56,0.44995,1,1,1c0.54999,0,1-0.44,1-1v-4.15997h4.81995V65.5c0,0.56,0.45001,1,1,1c0.55005,0,1-0.44,1-1v-4.15997h4.82001   V65.5c0,0.56,0.45001,1,1,1c0.55005,0,1-0.44,1-1v-4.15997h4.82001V65.5c0,0.56,0.45001,1,1,1s1-0.44,1-1v-4.15997h4.82001V65.5   c0,0.56,0.45001,1,1,1s1-0.44,1-1v-4.15997h4.82001V65.5c0,0.56,0.44,1,1,1c0.54999,0,1-0.44,1-1v-4.15997h1.39001   c1.69,0,3.07001-1.38,3.07001-3.07001v-2.31h4.15997c0.54999,0,1-0.45001,1-1c0-0.55005-0.45001-1-1-1h-4.15997v-4.82001h4.15997   c0.54999,0,1-0.45001,1-1s-0.45001-1-1-1h-4.15997v-4.82001h4.15997c0.54999,0,1-0.45001,1-1s-0.45001-1-1-1h-4.15997V35.5h4.15997   c0.54999,0,1-0.44,1-1c0-0.54999-0.45001-1-1-1h-4.15997v-4.82001h4.15997c0.54999,0,1-0.44,1-1c0-0.54999-0.45001-1-1-1h-4.15997   v-4.81H64.57999z M55.75839,55.67853c0,0.55273-0.44775,1-1,1h-40.5166c-0.55225,0-1-0.44727-1-1V13.32599c0-0.55273,0.44775-1,1-1   h40.5166c0.55225,0,1,0.44727,1,1V55.67853z"/></g><text x="0" y="84" fill="#000000" font-size="5px" font-weight="bold" font-family="'Helvetica Neue', Helvetica, Arial-Unicode, Arial, Sans-serif">Created by Vectors Point</text><text x="0" y="89" fill="#000000" font-size="5px" font-weight="bold" font-family="'Helvetica Neue', Helvetica, Arial-Unicode, Arial, Sans-serif">from the Noun Project</text></svg>