<svg xmlns="http://www.w3.org/2000/svg" xmlns:xlink="http://www.w3.org/1999/xlink" version="1.1" x="0px" y="0px" viewBox="0 0 100 125" enable-background="new 0 0 100 100" xml:space="preserve"><g><g><path fill="#000000" d="M50,14.7c-24.9-0.1-45.2,20.1-45.2,45c0,8.7,2.5,16.8,6.7,23.7c1,1.6,2.8,2.7,4.8,2.7h67.1    c1.9,0,3.8-1,4.8-2.7c4.2-6.9,6.7-15,6.7-23.6C94.8,34.8,74.9,14.8,50,14.7z M79.9,76.1c-0.8,1.3-2.2,1.9-3.7,1.9H23.6    c-1.5,0-2.9-0.6-3.7-1.9c-3.3-5.4-5.3-11.7-5.3-18.5c0-19.5,15.9-35.3,35.4-35.2c19.5,0.1,35.1,15.7,35.1,35.2    C85.1,64.4,83.2,70.7,79.9,76.1z"/></g><g><path fill="#000000" d="M49.8,32.4c-1.6,0-3.2,0.2-4.7,0.5c-0.6,0.1-1,0.7-0.9,1.3c0.1,0.6,0.7,1,1.3,0.9c1.4-0.3,2.9-0.4,4.3-0.4    c12.5,0,22.7,10.2,22.7,22.7c0,4-1.1,8-3.1,11.4c-0.3,0.5-0.1,1.2,0.4,1.5c0.2,0.1,0.4,0.1,0.5,0.1c0.4,0,0.7-0.2,0.9-0.5    c2.2-3.8,3.4-8.1,3.4-12.5C74.7,43.5,63.5,32.4,49.8,32.4z"/></g><g><path fill="#000000" d="M32.3,39.6C27.6,44.3,25,50.6,25,57.2c0,4.2,1.1,8.3,3.1,12c0.2,0.4,0.6,0.6,0.9,0.6c0.2,0,0.4,0,0.5-0.1    c0.5-0.3,0.7-0.9,0.4-1.5c-1.8-3.3-2.8-7.1-2.8-10.9c0-6.1,2.4-11.8,6.6-16c0.4-0.4,0.4-1.1,0-1.5C33.4,39.2,32.7,39.2,32.3,39.6z    "/></g><g><path fill="#000000" d="M37.5,32c-0.1-0.2-0.4-0.1-0.4,0.1c1.2,6.4,6.2,34.1,7.2,36.8c1.1,3,4.4,4.6,7.5,3.5s4.6-4.4,3.5-7.5    C54.3,62.2,40.6,37.6,37.5,32z"/></g></g><text x="0" y="115" fill="#000000" font-size="5px" font-weight="bold" font-family="'Helvetica Neue', Helvetica, Arial-Unicode, Arial, Sans-serif">Created by Daniel Shoreman</text><text x="0" y="120" fill="#000000" font-size="5px" font-weight="bold" font-family="'Helvetica Neue', Helvetica, Arial-Unicode, Arial, Sans-serif">from the Noun Project</text></svg>