<svg id="Layer_1" data-name="Layer 1" xmlns="http://www.w3.org/2000/svg" viewBox="0 0 22.53 23.8"><defs><style>.cls-1{font-size:4px;font-family:ErasITC-Bold, Eras Bold ITC;font-weight:700;}</style></defs><path d="M1.14,23.9H18.8a.4.4,0,0,0,.4-.4V18.61h3.66a.4.4,0,0,0,.4-.4V11a.4.4,0,0,0-.4-.4H19.2V.5a.4.4,0,0,0-.4-.4H8.35L8.2.13,8.09.21h0L.85,7.44v0a.26.26,0,0,0-.07.11.4.4,0,0,0,0,.15V23.5A.4.4,0,0,0,1.14,23.9Zm21.32-6.09H11.35V11.44H22.46v6.37ZM18.4,10.64H11a.4.4,0,0,0-.4.4v7.17a.4.4,0,0,0,.4.4H18.4V23.1H1.54V7.9C3.6,6,6.82,7.55,6.85,7.56A.4.4,0,0,0,7.4,7,5.85,5.85,0,0,1,8.53.9H18.4ZM6.42,3a7.08,7.08,0,0,0,0,3.53,6.69,6.69,0,0,0-3.21-.3Z" transform="translate(-0.74 -0.1)"/><text class="cls-1" transform="translate(11.26 16.07)">QML</text></svg>