<?xml version="1.0" encoding="utf-8"?>
<!-- Generator: Adobe Illustrator 25.2.0, SVG Export Plug-In . SVG Version: 6.00 Build 0)  -->
<svg version="1.1" id="Layer_1" xmlns="http://www.w3.org/2000/svg" xmlns:xlink="http://www.w3.org/1999/xlink" x="0px" y="0px"
	 viewBox="0 0 64 80" style="enable-background:new 0 0 64 80;" xml:space="preserve">
<g>
	<path d="M60,23H42.7c-0.3-0.6-1-1-1.7-1v-5c0-4.6-3.5-8.4-8-8.9V8c0-0.6,0.4-1,1-1h26c1.7,0,3-1.3,3-3s-1.3-3-3-3H13v2h47
		c0.6,0,1,0.4,1,1s-0.4,1-1,1H34c-1.7,0-3,1.3-3,3v0.1c-4.5,0.5-8,4.3-8,8.9v5c-0.7,0-1.4,0.4-1.7,1H4c-1.7,0-3,1.3-3,3v2
		c0,1.3,0.8,2.4,2,2.8V58c0,2.8,2.2,5,5,5h48c2.8,0,5-2.2,5-5V30.8c1.2-0.4,2-1.5,2-2.8v-2C63,24.3,61.7,23,60,23z M25,17
		c0-3.9,3.1-7,7-7s7,3.1,7,7v5H25V17z M23,24h18l0,2H23V24z M37,28h2v5c0,0.6-0.4,1-1,1s-1-0.4-1-1V28z M25,28h2v5c0,0.6-0.4,1-1,1
		s-1-0.4-1-1V28z M3,26c0-0.6,0.4-1,1-1h17v1c0,1.1,0.9,2,2,2v1H4c-0.6,0-1-0.4-1-1V26z M12.3,54.9l3.7,1.5l0.8-1.8L13,53.1
		c0.9-1.9,2.1-3.6,3.5-5.2l2.8,2.8l1.4-1.4l-2.8-2.8c1.5-1.4,3.3-2.6,5.2-3.5l1.5,3.7l1.8-0.8l-1.5-3.7c1.9-0.7,4-1.1,6.1-1.2V45h2
		v-3.9c2.1,0.1,4.2,0.5,6.1,1.2l-1.5,3.7l1.8,0.8l1.5-3.7c1.9,0.9,3.6,2.1,5.2,3.5l-2.8,2.8l1.4,1.4l2.8-2.8
		c1.4,1.5,2.6,3.3,3.5,5.2l-3.7,1.5l0.8,1.8l3.7-1.5c0.7,1.9,1.1,4,1.2,6.1h-14c-0.3-2.4-1.8-4.3-3.9-5.3v-2.9
		c0-2.1-0.8-4.1-2.3-5.5L32,46.6l-0.7,0.7c-1.5,1.5-2.3,3.4-2.3,5.5v2.9c-2.1,1-3.6,3-3.9,5.3h-14C11.2,58.9,11.6,56.8,12.3,54.9z
		 M33,55.1c-0.3,0-0.7-0.1-1-0.1s-0.7,0-1,0.1v-2.3c0-1.2,0.4-2.3,1-3.3c0.7,1,1,2.1,1,3.3V55.1z M32,57c2.4,0,4.4,1.7,4.9,4h-9.8
		C27.6,58.7,29.6,57,32,57z M56,61h-1c-0.5-12.2-10.6-22-23-22S9.6,48.8,9,61H8c-1.7,0-3-1.3-3-3V31h18v2c0,1.7,1.3,3,3,3s3-1.3,3-3
		v-5h6v5c0,1.7,1.3,3,3,3s3-1.3,3-3v-2h18v27C59,59.7,57.7,61,56,61z M61,28c0,0.6-0.4,1-1,1H41v-1c1.1,0,2-0.9,2-2v-1h17
		c0.6,0,1,0.4,1,1V28z"/>
	<path d="M45,42h12v-6H45V42z M47,38h8v2h-8V38z"/>
	<path d="M16,33h-6v3H7v6h3v3h6v-3h3v-6h-3V33z M17,38v2h-3v3h-2v-3H9v-2h3v-3h2v3H17z"/>
</g>
</svg>
