<svg id="Layer_1" data-name="Layer 1" xmlns="http://www.w3.org/2000/svg" viewBox="0 0 22.53 23.8"><path d="M15,15.18a1.93,1.93,0,0,0,.1-.67,1.56,1.56,0,0,0-.38-1.11,1.36,1.36,0,0,0-1-.4,1.36,1.36,0,0,0-1,.4,1.5,1.5,0,0,0-.38,1.11,1.51,1.51,0,0,0,.38,1.12,1.38,1.38,0,0,0,1.06.4,1.66,1.66,0,0,0,.64-.12l.39.26.26.11.22-.42a1.92,1.92,0,0,1-.47-.25A1.5,1.5,0,0,0,15,15.18ZM14.44,15a.66.66,0,0,1-.17.32,2.17,2.17,0,0,0-.56-.3l-.16.34a2.09,2.09,0,0,1,.36.19.86.86,0,0,1-.24,0,.73.73,0,0,1-.57-.26,1.12,1.12,0,0,1-.22-.77,1.13,1.13,0,0,1,.22-.76.82.82,0,0,1,1.18,0,1.11,1.11,0,0,1,.22.76A1.46,1.46,0,0,1,14.44,15Z" transform="translate(-0.74 -0.1)"/><polygon points="16.35 15.04 15.83 13.1 14.96 13.1 14.96 15.95 15.5 15.95 15.5 13.71 16.07 15.95 16.62 15.95 17.19 13.71 17.19 15.95 17.72 15.95 17.72 13.1 16.86 13.1 16.35 15.04"/><polygon points="20.32 15.95 20.32 15.47 18.89 15.47 18.89 13.12 18.31 13.12 18.31 15.95 20.32 15.95"/><path d="M1.14,23.9H18.8a.4.4,0,0,0,.4-.4V18.61h3.66a.4.4,0,0,0,.4-.4V11a.4.4,0,0,0-.4-.4H19.2V.5a.4.4,0,0,0-.4-.4H8.35L8.2.13,8.09.21h0L.85,7.44v0a.26.26,0,0,0-.07.11.4.4,0,0,0,0,.15V23.5A.4.4,0,0,0,1.14,23.9Zm21.32-6.09H11.35V11.44H22.46v6.37ZM18.4,10.64H11a.4.4,0,0,0-.4.4v7.17a.4.4,0,0,0,.4.4H18.4V23.1H1.54V7.9C3.6,6,6.82,7.55,6.85,7.56A.4.4,0,0,0,7.4,7,5.85,5.85,0,0,1,8.53.9H18.4ZM6.42,3a7.08,7.08,0,0,0,0,3.53,6.69,6.69,0,0,0-3.21-.3Z" transform="translate(-0.74 -0.1)"/></svg>