<?xml version="1.0" encoding="utf-8"?>
<!-- Generator: Adobe Illustrator 25.2.0, SVG Export Plug-In . SVG Version: 6.00 Build 0)  -->
<svg version="1.1"
	 id="Layer_1" xmlns:cc="http://creativecommons.org/ns#" xmlns:dc="http://purl.org/dc/elements/1.1/" xmlns:inkscape="http://www.inkscape.org/namespaces/inkscape" xmlns:rdf="http://www.w3.org/1999/02/22-rdf-syntax-ns#" xmlns:sodipodi="http://sodipodi.sourceforge.net/DTD/sodipodi-0.dtd" xmlns:svg="http://www.w3.org/2000/svg"
	 xmlns="http://www.w3.org/2000/svg" xmlns:xlink="http://www.w3.org/1999/xlink" x="0px" y="0px" viewBox="0 0 32 40"
	 style="enable-background:new 0 0 32 40;" xml:space="preserve">
<polygon points="18.7,17.3 18,18 17,17 18,16 17,15 18,14 18.7,14.7 18.4,15 19.4,16 18.4,17 "/>
<path d="M18,11.8c-1.1,0-2.2,0.4-3,1.2h-4.5c-0.3,0-0.5,0.2-0.5,0.5V14H9v1h1v2H9v1h1v0.5c0,0.3,0.2,0.5,0.5,0.5H15
	c1.7,1.7,4.3,1.7,6,0s1.7-4.3,0-6C20.2,12.2,19.1,11.8,18,11.8z M17.7,12.8c1-0.1,2.1,0.3,2.8,1.2c1.1,1.4,0.9,3.4-0.4,4.6
	c-1.4,1.1-3.4,1-4.6-0.4v-4.1c0.1-0.2,0.3-0.3,0.4-0.4C16.5,13.1,17.1,12.8,17.7,12.8z M11,14h3.5v4H11V14z"/>
<path d="M24.2,28.9c0.2,0.2,0.5,0.1,0.6,0c0.1-0.1,0.1-0.2,0.1-0.3V3.5C25,3.2,24.8,3,24.5,3c-0.1,0-0.2,0-0.3,0.1l-8.3,7.4
	c-0.4,0.3-0.8,0.5-1.3,0.5H8c-0.6,0-1,0.4-1,1v8c0,0.5,0.4,1,1,1h6.6c0.5,0,1,0.2,1.3,0.5L24.2,28.9z M26,3.5v25.1
	c0,0.4-0.1,0.7-0.4,1c-0.5,0.6-1.4,0.7-2,0.1l-8.3-7.4c-0.2-0.2-0.4-0.2-0.7-0.2H8c-1.1,0-2-0.9-2-2v-8c0-1.1,0.9-2,2-2h6.6
	c0.2,0,0.5-0.1,0.7-0.2l8.3-7.4c0.3-0.2,0.6-0.4,1-0.4C25.4,2,26,2.7,26,3.5z"/>
</svg>
