<svg id="Layer_1" data-name="Layer 1" xmlns="http://www.w3.org/2000/svg" viewBox="0 0 22.53 23.8"><path d="M1.14,23.9H18.8a.4.4,0,0,0,.4-.4V18.61h3.66a.4.4,0,0,0,.4-.4V11a.4.4,0,0,0-.4-.4H19.2V.5a.4.4,0,0,0-.4-.4H8.35L8.2.13,8.09.21h0L.85,7.44v0a.26.26,0,0,0-.07.11.4.4,0,0,0,0,.15V23.5A.4.4,0,0,0,1.14,23.9Zm21.32-6.09H11.35V11.44H22.46v6.37ZM18.4,10.64H11a.4.4,0,0,0-.4.4v7.17a.4.4,0,0,0,.4.4H18.4V23.1H1.54V7.9C3.6,6,6.82,7.55,6.85,7.56A.4.4,0,0,0,7.4,7,5.85,5.85,0,0,1,8.53.9H18.4ZM6.42,3a7.08,7.08,0,0,0,0,3.53,6.69,6.69,0,0,0-3.21-.3Z" transform="translate(-0.74 -0.1)"/><path d="M14.77,14.35a3.4,3.4,0,0,0-.64-.21,1.72,1.72,0,0,1-.55-.2.23.23,0,0,1-.09-.18.21.21,0,0,1,.1-.18.66.66,0,0,1,.4-.1.67.67,0,0,1,.38.09.52.52,0,0,1,.16.33l.59,0a.79.79,0,0,0-.29-.64A1.18,1.18,0,0,0,14,13a1.43,1.43,0,0,0-.58.11.7.7,0,0,0-.36.29.72.72,0,0,0-.13.42.75.75,0,0,0,.27.59,1.45,1.45,0,0,0,.67.29l.47.13a.64.64,0,0,1,.22.13.28.28,0,0,1,.06.18.36.36,0,0,1-.15.28.67.67,0,0,1-.43.12.6.6,0,0,1-.43-.14A.65.65,0,0,1,13.4,15l-.58,0a1.12,1.12,0,0,0,.36.75A1.22,1.22,0,0,0,14,16a1.67,1.67,0,0,0,.64-.11.91.91,0,0,0,.4-.32.92.92,0,0,0,.14-.48.83.83,0,0,0-.12-.46A.84.84,0,0,0,14.77,14.35Z" transform="translate(-0.74 -0.1)"/><path d="M18.33,15.17a1.93,1.93,0,0,0,.1-.67,1.54,1.54,0,0,0-.38-1.12,1.38,1.38,0,0,0-1-.4,1.42,1.42,0,0,0-1,.4,1.58,1.58,0,0,0-.38,1.12A1.57,1.57,0,0,0,16,15.62,1.39,1.39,0,0,0,17,16a1.66,1.66,0,0,0,.64-.12l.39.26.27.11.21-.42a2.12,2.12,0,0,1-.47-.25A1.5,1.5,0,0,0,18.33,15.17Zm-.57-.23a.71.71,0,0,1-.17.32A2,2,0,0,0,17,15l-.16.34a2.61,2.61,0,0,1,.37.19,1,1,0,0,1-.25,0,.73.73,0,0,1-.57-.26,1.12,1.12,0,0,1-.22-.77,1.11,1.11,0,0,1,.22-.76.82.82,0,0,1,1.18,0,1.11,1.11,0,0,1,.22.76A1.46,1.46,0,0,1,17.76,14.94Z" transform="translate(-0.74 -0.1)"/><polygon points="20.25 15.87 20.25 15.38 18.77 15.38 18.77 12.96 18.18 12.96 18.18 15.87 20.25 15.87"/></svg>