<svg id="Layer_1" data-name="Layer 1" xmlns="http://www.w3.org/2000/svg" viewBox="0 0 18.47 23.8"><path d="M8.43,10.76a.39.39,0,0,0-.4.4v2.2a.4.4,0,0,0,.8,0v-2.2A.4.4,0,0,0,8.43,10.76Z" transform="translate(-2.77 -0.1)"/><path d="M15.62,10.76a.39.39,0,0,0-.39.4v2.2a.4.4,0,1,0,.79,0v-2.2A.39.39,0,0,0,15.62,10.76Z" transform="translate(-2.77 -0.1)"/><path d="M13.56,10.76H10.5a.39.39,0,0,0-.4.4v2.2a.4.4,0,0,0,.4.4h3.06a.4.4,0,0,0,.4-.4v-2.2A.4.4,0,0,0,13.56,10.76Zm-.4,2.2H10.9v-1.4h2.26Z" transform="translate(-2.77 -0.1)"/><path d="M8.43,6a.4.4,0,0,0,.4-.41V3.42a.4.4,0,1,0-.8,0v2.2A.4.4,0,0,0,8.43,6Z" transform="translate(-2.77 -0.1)"/><path d="M10.6,6a.4.4,0,0,0,.4-.41V3.42a.4.4,0,1,0-.8,0v2.2A.4.4,0,0,0,10.6,6Z" transform="translate(-2.77 -0.1)"/><path d="M15.63,3H12.56a.4.4,0,0,0-.4.4v2.2a.4.4,0,0,0,.4.41h3.07a.4.4,0,0,0,.4-.41V3.42A.4.4,0,0,0,15.63,3Zm-.4,2.2H13V3.82h2.27Z" transform="translate(-2.77 -0.1)"/><path d="M15.63,6.59a.4.4,0,0,0-.4.4V9.2a.4.4,0,0,0,.8,0V7A.4.4,0,0,0,15.63,6.59Z" transform="translate(-2.77 -0.1)"/><path d="M13.86,9.19V7a.4.4,0,1,0-.8,0V9.2a.4.4,0,1,0,.8,0Z" transform="translate(-2.77 -0.1)"/><path d="M11.9,9.19V7a.4.4,0,0,0-.4-.4H8.43A.4.4,0,0,0,8,7V9.2a.4.4,0,0,0,.4.4H11.5A.4.4,0,0,0,11.9,9.19Zm-.8-.39H8.83V7.39H11.1Z" transform="translate(-2.77 -0.1)"/><path d="M3.17.1a.4.4,0,0,0-.4.4V16.28a.4.4,0,0,0,0,.15.26.26,0,0,0,.07.11v0l7.22,7.22h0l.11.08a.45.45,0,0,0,.16,0H20.83a.39.39,0,0,0,.4-.4V.5a.4.4,0,0,0-.4-.4ZM5.22,17.77a6.69,6.69,0,0,0,3.21-.3,7.08,7.08,0,0,0,0,3.53ZM20.43,23.1H10.56A5.77,5.77,0,0,1,9.43,17a.41.41,0,0,0-.09-.45.38.38,0,0,0-.45-.07S5.63,18,3.57,16.1V.9H20.43V23.1Z" transform="translate(-2.77 -0.1)"/></svg>