<?xml version="1.0" encoding="utf-8"?>
<!-- Generator: Adobe Illustrator 25.2.0, SVG Export Plug-In . SVG Version: 6.00 Build 0)  -->
<svg version="1.1" id="Layer_1" xmlns="http://www.w3.org/2000/svg" xmlns:xlink="http://www.w3.org/1999/xlink" x="0px" y="0px"
	 viewBox="0 0 64 80" style="enable-background:new 0 0 64 80;" xml:space="preserve">
<g>
	<path d="M57,18H35v-2h3c0.6,0,1-0.4,1-1V7c0-0.6-0.4-1-1-1h-2V4c0-0.6-0.4-1-1-1h-4c-0.6,0-1,0.4-1,1v2h-2V4c0-0.6-0.4-1-1-1h-4
		c-0.6,0-1,0.4-1,1v2h-2c-0.6,0-1,0.4-1,1v8c0,0.6,0.4,1,1,1h3v2H13c-1.7,0-3,1.3-3,3v7H3c-0.6,0-1,0.4-1,1v6c0,0.6,0.4,1,1,1h7v8
		c0,1.7,1.3,3,3,3h8v2h-4c-0.6,0-1,0.4-1,1v4c0,0.6,0.4,1,1,1h34c0.6,0,1-0.4,1-1v-4c0-0.6-0.4-1-1-1h-4v-2h10c2.8,0,5-2.2,5-5V23
		C62,20.2,59.8,18,57,18z M50,45H19V20h31V45z M32,5h2v1h-2V5z M24,5h2v1h-2V5z M21,8h16v6H21V8z M25,16h8v2h-8V16z M4,34v-4h6v4H4z
		 M16,45h-3c-0.6,0-1-0.4-1-1V21c0-0.6,0.4-1,1-1h4v25H16z M50,53H18v-2h32V53z M45,49H23v-2h22V49z M60,42c0,1.7-1.3,3-3,3h-5V20h5
		c1.7,0,3,1.3,3,3V42z"/>
	<rect x="54" y="23" width="4" height="2"/>
	<rect x="54" y="27" width="4" height="2"/>
	<path d="M22,22v20c0,0.6,0.4,1,1,1h23c0.6,0,1-0.4,1-1V22c0-0.6-0.4-1-1-1H23C22.4,21,22,21.4,22,22z M24,29h21v6H24V29z M24,37h21
		v1H24V37z M45,27H24v-1h21V27z M24,41v-1h21v1H24z M45,23v1H24v-1H45z"/>
</g>
</svg>
