<?xml version="1.0" encoding="utf-8"?>
<!-- Generator: Adobe Illustrator 25.2.0, SVG Export Plug-In . SVG Version: 6.00 Build 0)  -->
<svg version="1.1"
	 id="Layer_1" xmlns:cc="http://creativecommons.org/ns#" xmlns:dc="http://purl.org/dc/elements/1.1/" xmlns:inkscape="http://www.inkscape.org/namespaces/inkscape" xmlns:rdf="http://www.w3.org/1999/02/22-rdf-syntax-ns#" xmlns:sodipodi="http://sodipodi.sourceforge.net/DTD/sodipodi-0.dtd" xmlns:svg="http://www.w3.org/2000/svg"
	 xmlns="http://www.w3.org/2000/svg" xmlns:xlink="http://www.w3.org/1999/xlink" x="0px" y="0px" viewBox="0 0 100 125"
	 style="enable-background:new 0 0 100 125;" xml:space="preserve">
<g transform="translate(0,-952.36218)">
	<path d="M24,958.4c-4.4,0-8,3.6-8,8s3.6,8,8,8s8-3.6,8-8S28.4,958.4,24,958.4z M44,958.4c-4.4,0-8,3.6-8,8s3.6,8,8,8s8-3.6,8-8
		S48.4,958.4,44,958.4z M64,958.4c-4.4,0-8,3.6-8,8s3.6,8,8,8s8-3.6,8-8S68.4,958.4,64,958.4z M24,962.4c2.2,0,4,1.8,4,4s-1.8,4-4,4
		s-4-1.8-4-4S21.8,962.4,24,962.4z M44,962.4c2.2,0,4,1.8,4,4s-1.8,4-4,4c-2.2,0-4-1.8-4-4S41.8,962.4,44,962.4z M64,962.4
		c2.2,0,4,1.8,4,4s-1.8,4-4,4c-2.2,0-4-1.8-4-4S61.8,962.4,64,962.4z M44,977.4c-4.4,0-8,3.6-8,8v33.2c-0.3-0.1-0.2-0.1-0.5-0.2
		c-1.8-0.5-3.7-1.1-5.5-1.1c-2.3,0-4.4,0.7-5.8,2.2c-1.5,1.5-2.2,3.5-2.2,5.8c0,0.6,0.3,1.1,0.7,1.5l16.3,14.4v3.1c0,1.1,0.9,2,2,2
		h28c0.5,0,1-0.2,1.4-0.6c7.3-7.3,13.6-17.7,13.6-28.4c0-0.4-0.1-0.9-0.4-1.2c-6.5-8.4-17.1-14.2-28.9-15.5L52,985c0,0,0,0,0,0
		c-0.3-2-1.1-3.8-2.4-5.2C48.2,978.3,46.2,977.4,44,977.4z M24,978.4c-4.4,0-8,3.6-8,8s3.6,8,8,8s8-3.6,8-8S28.4,978.4,24,978.4z
		 M64,978.4c-4.4,0-8,3.6-8,8s3.6,8,8,8s8-3.6,8-8S68.4,978.4,64,978.4z M44,981.4c1.1,0,1.9,0.4,2.6,1.1s1.2,1.9,1.4,3.2
		c0,0,0,0,0,0l3,17c0.2,0.9,0.9,1.6,1.8,1.7c11.1,0.8,21,6.2,27.1,13.7c-0.3,8.7-5.5,17.8-11.8,24.3H43v-2c0-0.6-0.3-1.1-0.7-1.5
		l-16.2-14.3c0.1-1,0.4-1.7,0.9-2.2c0.6-0.6,1.5-1,3-1c0.7,0,2.7,0.4,4.3,0.9c1.6,0.5,3,1,3,1c1,0.4,2.2-0.2,2.6-1.2
		c0.1-0.2,0.1-0.5,0.1-0.7v-36C40,983.1,41.7,981.4,44,981.4z M24,982.4c2.2,0,4,1.8,4,4s-1.8,4-4,4s-4-1.8-4-4S21.8,982.4,24,982.4
		z M64,982.4c2.2,0,4,1.8,4,4s-1.8,4-4,4s-4-1.8-4-4S61.8,982.4,64,982.4z M24,998.4c-4.4,0-8,3.6-8,8s3.6,8,8,8s8-3.6,8-8
		S28.4,998.4,24,998.4z M24,1002.4c2.2,0,4,1.8,4,4s-1.8,4-4,4s-4-1.8-4-4S21.8,1002.4,24,1002.4z"/>
</g>
</svg>
