<svg id="Layer_1" data-name="Layer 1" xmlns="http://www.w3.org/2000/svg" viewBox="0 0 22.53 23.8"><polygon points="12.99 14.7 14.43 14.7 14.43 14.21 12.99 14.21 12.99 13.58 14.54 13.58 14.54 13.1 12.42 13.1 12.42 15.96 14.59 15.96 14.59 15.48 12.99 15.48 12.99 14.7"/><polygon points="17.36 13.1 16.7 13.1 16.13 14.02 15.56 13.1 14.88 13.1 15.77 14.46 14.79 15.96 15.48 15.96 16.12 14.97 16.76 15.96 17.45 15.96 16.48 14.49 17.36 13.1"/><polygon points="18.33 14.7 19.76 14.7 19.76 14.21 18.33 14.21 18.33 13.58 19.87 13.58 19.87 13.1 17.75 13.1 17.75 15.96 19.93 15.96 19.93 15.48 18.33 15.48 18.33 14.7"/><path d="M1.14,23.9H18.8a.4.4,0,0,0,.4-.4V18.61h3.66a.4.4,0,0,0,.4-.4V11a.4.4,0,0,0-.4-.4H19.2V.5a.4.4,0,0,0-.4-.4H8.35L8.2.13,8.09.21h0L.85,7.44v0a.26.26,0,0,0-.07.11.4.4,0,0,0,0,.15V23.5A.4.4,0,0,0,1.14,23.9Zm21.32-6.09H11.35V11.44H22.46v6.37ZM18.4,10.64H11a.4.4,0,0,0-.4.4v7.17a.4.4,0,0,0,.4.4H18.4V23.1H1.54V7.9C3.6,6,6.82,7.55,6.85,7.56A.4.4,0,0,0,7.4,7,5.85,5.85,0,0,1,8.53.9H18.4ZM6.42,3a7.08,7.08,0,0,0,0,3.53,6.69,6.69,0,0,0-3.21-.3Z" transform="translate(-0.74 -0.1)"/></svg>