<svg id="Layer_1" data-name="Layer 1" xmlns="http://www.w3.org/2000/svg" viewBox="0 0 22.53 23.8"><path d="M16,13.21a3.46,3.46,0,0,0-.7,0h-1v2.94h.6V15h.38a4.44,4.44,0,0,0,.62,0,1.06,1.06,0,0,0,.31-.14.89.89,0,0,0,.25-.29,1.07,1.07,0,0,0-.07-1A.77.77,0,0,0,16,13.21Zm-.08,1.1a.45.45,0,0,1-.19.14,1.51,1.51,0,0,1-.47.05h-.32v-.84h.29l.42,0a.4.4,0,0,1,.34.4A.48.48,0,0,1,15.91,14.31Z" transform="translate(-0.74 -0.1)"/><polygon points="17.42 14.23 16.73 13.07 16.03 13.07 17.11 14.77 17.11 16.01 17.7 16.01 17.7 14.77 18.78 13.07 18.1 13.07 17.42 14.23"/><path d="M1.13,23.9H18.8a.4.4,0,0,0,.4-.4V18.61h3.66a.39.39,0,0,0,.4-.4V11a.4.4,0,0,0-.4-.4H19.2V.5a.4.4,0,0,0-.4-.4H8.35L8.2.13,8.09.21h0L.85,7.44v0a.26.26,0,0,0-.07.11.4.4,0,0,0,0,.15V23.5A.4.4,0,0,0,1.13,23.9Zm21.33-6.09H11.35V11.44H22.46ZM18.4,10.64H11a.4.4,0,0,0-.4.4v7.17a.4.4,0,0,0,.4.4H18.4V23.1H1.54V7.9C3.6,6,6.82,7.55,6.86,7.56a.38.38,0,0,0,.45-.07A.4.4,0,0,0,7.4,7,5.85,5.85,0,0,1,8.53.9H18.4v9.74ZM6.42,3a7.08,7.08,0,0,0,0,3.53,6.69,6.69,0,0,0-3.21-.3Z" transform="translate(-0.74 -0.1)"/></svg>