<?xml version="1.0" encoding="utf-8"?>
<!-- Generator: Adobe Illustrator 25.2.0, SVG Export Plug-In . SVG Version: 6.00 Build 0)  -->
<svg version="1.1" id="Layer_1" xmlns="http://www.w3.org/2000/svg" xmlns:xlink="http://www.w3.org/1999/xlink" x="0px" y="0px"
	 viewBox="0 0 128 160" style="enable-background:new 0 0 128 160;" xml:space="preserve">
<path d="M122,8H6c-3.3,0-6,2.7-6,6v84c0,3.3,2.7,6,6,6h56v12H31c-1.1,0-2,0.9-2,2s0.9,2,2,2h66c1.1,0,2-0.9,2-2s-0.9-2-2-2H66v-12
	h56c3.3,0,6-2.7,6-6V14C128,10.7,125.3,8,122,8z M124,98c0,1.1-0.9,2-2,2H6c-1.1,0-2-0.9-2-2V14c0-1.1,0.9-2,2-2h116
	c1.1,0,2,0.9,2,2V98z"/>
<path d="M44,62H10c-1.1,0-2,0.9-2,2s0.9,2,2,2h34c1.1,0,2-0.9,2-2S45.1,62,44,62z"/>
<path d="M10,76h21.5c1.1,0,2-0.9,2-2s-0.9-2-2-2H10c-1.1,0-2,0.9-2,2S8.9,76,10,76z"/>
<path d="M52,16c-1.1,0-2,0.9-2,2v76c0,1.1,0.9,2,2,2s2-0.9,2-2V18C54,16.9,53.1,16,52,16z"/>
<path d="M118,16H60c-1.1,0-2,0.9-2,2v33c0,1.1,0.9,2,2,2h58c1.1,0,2-0.9,2-2V18C120,16.9,119.1,16,118,16z M116,20v3l-10.3,6.9
	l-10.1-2.8c-0.7-0.2-1.4,0-1.9,0.5l-10.1,10l-10.8-4.5c-0.7-0.3-1.4-0.2-2,0.2L62,39.9V20H116z M62,49v-4.2l10.3-7.6l11,4.6
	c0.7,0.3,1.6,0.1,2.2-0.4l10.1-10.2l9.9,2.7c0.6,0.2,1.1,0.1,1.6-0.3l8.9-5.9V49H62z"/>
<path d="M44,82H10c-1.1,0-2,0.9-2,2v10c0,1.1,0.9,2,2,2h34c1.1,0,2-0.9,2-2V84C46,82.9,45.1,82,44,82z M42,92H12v-6h30V92z"/>
<path d="M120,67c0-4.4-3.6-8-8-8c-3.3,0-6.3,2.1-7.5,5.2l-7.6-0.8c-0.8-4.3-5-7.2-9.4-6.4c-3.8,0.7-6.5,4-6.5,7.9c0,0.5,0,1,0.2,1.5
	l-9,4.3c-2.8-3.4-7.9-3.8-11.3-1c-3.4,2.8-3.8,7.9-1,11.3c1.1,1.3,2.5,2.2,4.1,2.6V92h-4c-1.1,0-2,0.9-2,2s0.9,2,2,2h58
	c1.1,0,2-0.9,2-2s-0.9-2-2-2h-4V74.7C117.5,73.8,120,70.6,120,67z M112,63c2.2,0,4,1.8,4,4s-1.8,4-4,4s-4-1.8-4-4S109.8,63,112,63z
	 M89,61c2.2,0,4,1.8,4,4c0,2.2-1.8,4-4,4s-4-1.8-4-4C85,62.8,86.8,61,89,61z M62,76c0-2.2,1.8-4,4-4c2.2,0,4,1.8,4,4s-1.8,4-4,4
	C63.8,80,62,78.2,62,76z M68,83.7c3.5-0.9,6-4.1,6-7.7c0-0.5,0-1-0.2-1.5l9-4.3c1.1,1.3,2.5,2.2,4.2,2.6V92H68V83.7z M91,92V72.7
	c2.6-0.7,4.7-2.7,5.6-5.2l7.5,0.7c0.5,3.1,2.8,5.7,5.9,6.5V92H91z"/>
<path d="M40,16H14c-3.3,0-6,2.7-6,6v25c0,3.3,2.7,6,6,6h26c3.3,0,6-2.7,6-6V22C46,18.7,43.3,16,40,16z M42,47c0,1.1-0.9,2-2,2H14
	c-1.1,0-2-0.9-2-2V22c0-1.1,0.9-2,2-2h26c1.1,0,2,0.9,2,2V47z"/>
<path d="M35,32.3l-14.3-8.2c-1-0.6-2.2-0.2-2.7,0.7c-0.2,0.3-0.3,0.6-0.3,1v16.3c0,1.1,0.9,2,2,2c0.4,0,0.7-0.1,1-0.3L35,35.7
	c1-0.5,1.3-1.8,0.8-2.7C35.6,32.7,35.3,32.4,35,32.3z M21.7,38.7v-9.5L30,34L21.7,38.7z"/>
</svg>
