<svg id="Layer_1" data-name="Layer 1" xmlns="http://www.w3.org/2000/svg" viewBox="0 0 70 50.7"><path d="M83,36.9V29.7a5,5,0,0,0-5-5H20a5,5,0,0,0-5,5V68.3a5.05,5.05,0,0,0,3,4.6v2.4H32v-2h2.2v2H48.4v-2h3.1v2.1h8.1V73.3H77.9a5,5,0,0,0,5-5H85V54.1H83V49h2V36.9ZM36.2,73.3V65.2H46.4v8.1Zm21.4.1H53.5V65.2h4.1v8.2ZM83,66.3H69.8V56.1H83ZM81,54.1H67.8V68.3H80.9a3,3,0,0,1-3,3H59.6V63.2H51.5v8.1H48.4V63.2H34.2v8.1H30v2H28v-2H26v2H24v-2H22v2H20v-2a3,3,0,0,1-3-3V29.7a3,3,0,0,1,3-3H78a3,3,0,0,1,3,3v7.2H69.8V49H81ZM83,47H71.8V38.9H83Z" transform="translate(-15 -24.7)"/><circle cx="16.3" cy="32.1" r="1"/><rect x="5" y="14.8" width="4" height="3"/><polygon points="9 34 7 34 7 31.9 9 31.9 9 29.9 7 29.9 7 27.8 9 27.8 9 25.8 7 25.8 7 23.8 9 23.8 9 21.8 5 21.8 5 36.1 9 36.1 9 34"/><circle cx="7.1" cy="41.6" r="2"/><path d="M22.1,29.8a2,2,0,0,0,0,4,2.07,2.07,0,0,0,2-2A2,2,0,0,0,22.1,29.8Z" transform="translate(-15 -24.7)"/><rect x="32.9" y="4" width="2" height="2"/><rect x="32.9" y="8" width="2" height="2"/><rect x="28.9" y="4" width="2" height="2"/><rect x="12.9" y="4" width="2" height="2"/><rect x="12.9" y="8" width="2" height="2"/><polygon points="16.2 14.8 12.2 14.8 12.2 16.9 14.2 16.9 14.2 18.9 12.2 18.9 12.2 21 14.2 21 14.2 23 12.2 23 12.2 24.9 16.2 24.9 16.2 14.8"/><path d="M27.2,60.8h8.1V52.7H27.2Zm2-6.1h4.1v4.1H29.2Z" transform="translate(-15 -24.7)"/><rect x="16.9" y="8" width="2" height="2"/><rect x="16.9" y="4" width="2" height="2"/><rect x="20.9" y="8" width="2" height="2"/><rect x="20.9" y="4" width="2" height="2"/><rect x="24.9" y="8" width="2" height="2"/><rect x="24.9" y="4" width="2" height="2"/><rect x="28.9" y="8" width="2" height="2"/><rect x="27.4" y="44.6" width="2" height="2"/><path d="M46.5,39.5h-.8l-.6.6-2,2-.6.6v9.9H55.6V39.5H46.5Zm7.1,11.1H44.5V43.5l2-2h7.1Z" transform="translate(-15 -24.7)"/><rect x="36.9" y="8" width="2" height="2"/><rect x="36.9" y="4" width="2" height="2"/><rect x="40.9" y="8" width="2" height="2"/><rect x="40.9" y="4" width="2" height="2"/><circle cx="48.7" cy="41.6" r="2"/><path d="M63.7,29.8a2,2,0,0,0,0,4,2.07,2.07,0,0,0,2-2A2,2,0,0,0,63.7,29.8Z" transform="translate(-15 -24.7)"/><polygon points="61.5 19.3 63.3 20.1 63.3 19.1 62.5 18.4 62.5 18.1 63.3 17.4 63.3 16.4 61.5 17.2 61.5 19.3"/><polygon points="60.5 37.6 62.3 38.4 62.3 37.4 61.5 36.7 61.5 36.3 62.3 35.7 62.3 34.7 60.5 35.5 60.5 37.6"/></svg>