<svg xmlns="http://www.w3.org/2000/svg" viewBox="0 0 56.7 94.9"><defs><style>.cls-1{fill:#666;}</style></defs><g id="Layer_1" data-name="Layer 1"><path class="cls-1" d="M70.3,11.3H60.7v-7A1.69,1.69,0,0,0,59,2.6H41.1a1.69,1.69,0,0,0-1.7,1.7v7H29.8a8.07,8.07,0,0,0-8.1,8.1v70a8.13,8.13,0,0,0,8.1,8.1H70.3a8.07,8.07,0,0,0,8.1-8.1v-70A8.07,8.07,0,0,0,70.3,11.3ZM61.2,58.9H55.8V75.4A2.08,2.08,0,0,1,52,76.6L36.7,53.8a2.51,2.51,0,0,1,2.1-3.9h5.4V33.4A2.08,2.08,0,0,1,48,32.2L63.4,54.9A2.6,2.6,0,0,1,61.2,58.9Z" transform="translate(-21.7 -2.6)"/></g></svg>