<svg id="Layer_1" data-name="Layer 1" xmlns="http://www.w3.org/2000/svg" viewBox="0 0 90.1 71.4"><defs><style>.cls-1{fill:#fff;}</style></defs><path class="cls-1" d="M50,14.7A45.06,45.06,0,0,0,11.5,83.4a5.72,5.72,0,0,0,4.8,2.7H83.4a5.62,5.62,0,0,0,4.8-2.7A45.06,45.06,0,0,0,50,14.7ZM79.9,76.1A4.18,4.18,0,0,1,76.2,78H23.6a4.18,4.18,0,0,1-3.7-1.9,35.2,35.2,0,1,1,60,0Z" transform="translate(-4.8 -14.7)"/><path class="cls-1" d="M49.8,32.4a24.16,24.16,0,0,0-4.7.5,1.12,1.12,0,0,0,.4,2.2,20.87,20.87,0,0,1,4.3-.4A22.66,22.66,0,0,1,69.4,68.8a1.13,1.13,0,0,0,.4,1.5,1.09,1.09,0,0,0,.5.1,1.05,1.05,0,0,0,.9-.5A24.93,24.93,0,0,0,49.8,32.4Z" transform="translate(-4.8 -14.7)"/><path class="cls-1" d="M32.3,39.6A24.82,24.82,0,0,0,25,57.2a25.22,25.22,0,0,0,3.1,12,1.07,1.07,0,0,0,.9.6.75.75,0,0,0,.5-.1,1.1,1.1,0,0,0,.4-1.5,23,23,0,0,1-2.8-10.9,22.54,22.54,0,0,1,6.6-16,1.09,1.09,0,0,0,0-1.5A.85.85,0,0,0,32.3,39.6Z" transform="translate(-4.8 -14.7)"/><path class="cls-1" d="M37.5,32a.21.21,0,0,0-.4.1c1.2,6.4,6.2,34.1,7.2,36.8a5.86,5.86,0,0,0,7.5,3.5,5.78,5.78,0,0,0,3.5-7.5C54.3,62.2,40.6,37.6,37.5,32Z" transform="translate(-4.8 -14.7)"/></svg>