<svg id="Layer_1" data-name="Layer 1" xmlns="http://www.w3.org/2000/svg" viewBox="0 0 62.16 64"><defs><style>.cls-1{fill:#666;}</style></defs><path class="cls-1" d="M15.24,54.68H53.76V14.33H15.24ZM17.36,17.4a1,1,0,0,1,1-1h8.85a1,1,0,0,1,0,2H19.36v7a1,1,0,0,1-2,0Z" transform="translate(-3.42 -2.5)"/><path class="cls-1" d="M64.58,21.87a1,1,0,0,0,0-2H60.42V15.05h4.16a1,1,0,0,0,0-2H60.42V10.74a3.08,3.08,0,0,0-3.07-3.08H56V3.5a1,1,0,0,0-2,0V7.66H49.14V3.5a1,1,0,0,0-2,0V7.66H42.32V3.5a1,1,0,0,0-2,0V7.66H35.5V3.5a1,1,0,0,0-2,0V7.66H28.68V3.5a1,1,0,0,0-2,0V7.66H21.86V3.5a1,1,0,0,0-2,0V7.66H15V3.5a1,1,0,0,0-2,0V7.66H11.65a3.08,3.08,0,0,0-3.07,3.08v2.31H4.42a1,1,0,1,0,0,2H8.58v4.82H4.42a1,1,0,1,0,0,2H8.58v4.81H4.42a1,1,0,0,0,0,2H8.58V33.5H4.42a1,1,0,0,0,0,2H8.58v4.82H4.42a1,1,0,0,0,0,2H8.58v4.82H4.42a1,1,0,0,0,0,2H8.58V54H4.42a1,1,0,0,0,0,2H8.58v2.31a3.08,3.08,0,0,0,3.07,3.07H13V65.5a1,1,0,0,0,2,0V61.34h4.82V65.5a1,1,0,0,0,2,0V61.34h4.82V65.5a1,1,0,0,0,2,0V61.34H33.5V65.5a1,1,0,0,0,2,0V61.34h4.82V65.5a1,1,0,0,0,2,0V61.34h4.82V65.5a1,1,0,0,0,2,0V61.34H54V65.5a1,1,0,0,0,2,0V61.34h1.39a3.08,3.08,0,0,0,3.07-3.07V56h4.16a1,1,0,0,0,0-2H60.42V49.14h4.16a1,1,0,0,0,0-2H60.42V42.32h4.16a1,1,0,0,0,0-2H60.42V35.5h4.16a1,1,0,0,0,0-2H60.42V28.68h4.16a1,1,0,0,0,0-2H60.42V21.87ZM55.76,55.68a1,1,0,0,1-1,1H14.24a1,1,0,0,1-1-1V13.33a1,1,0,0,1,1-1H54.76a1,1,0,0,1,1,1Z" transform="translate(-3.42 -2.5)"/></svg>