<svg id="Layer_1" data-name="Layer 1" xmlns="http://www.w3.org/2000/svg" viewBox="0 0 90 87.2"><defs><style>.cls-1{fill:#fff;}</style></defs><path class="cls-1" d="M48.67,59.82l-1.81-6a1.61,1.61,0,0,1,.52-1.61,21.52,21.52,0,0,0,3.44-3.44,1.59,1.59,0,0,1,1.61-.52l6,1.8a1.33,1.33,0,0,0,1.5-.59,31.39,31.39,0,0,0,1.4-2.92c.41-1,.77-2,1.07-3A1.35,1.35,0,0,0,61.75,42l-5.51-2.95a1.63,1.63,0,0,1-.77-1.51,21.44,21.44,0,0,0,0-4.87,1.64,1.64,0,0,1,.77-1.51l5.51-3a1.34,1.34,0,0,0,.64-1.48c-.21-.7-.44-1.4-.7-2.1-.2-.53-.55-1.38-.79-1.9s-.63-1.33-1-2a1.33,1.33,0,0,0-1.49-.59l-6,1.8a1.59,1.59,0,0,1-1.61-.52A21.06,21.06,0,0,0,47.38,18a1.62,1.62,0,0,1-.52-1.61l1.81-6a1.34,1.34,0,0,0-.6-1.49,29,29,0,0,0-2.92-1.4,31.82,31.82,0,0,0-3.06-1.08,1.35,1.35,0,0,0-1.48.64l-3,5.52a1.6,1.6,0,0,1-1.51.76,21.94,21.94,0,0,0-4.86,0,1.62,1.62,0,0,1-1.51-.76l-3-5.52a1.35,1.35,0,0,0-1.48-.64c-.7.21-1.4.44-2.1.7-.53.2-1.38.55-1.9.79s-1.33.63-2,1a1.35,1.35,0,0,0-.6,1.5l1.81,6a1.6,1.6,0,0,1-.53,1.6,21.53,21.53,0,0,0-3.43,3.45A1.61,1.61,0,0,1,15,22l-6-1.8a1.33,1.33,0,0,0-1.5.6,27.1,27.1,0,0,0-1.4,2.92c-.42,1-.77,2-1.08,3a1.35,1.35,0,0,0,.64,1.49l5.51,3A1.62,1.62,0,0,1,12,32.68a22.12,22.12,0,0,0,0,4.88,1.62,1.62,0,0,1-.77,1.5L5.68,42A1.34,1.34,0,0,0,5,43.5c.21.7.44,1.4.7,2.09.2.54.55,1.39.79,1.9q.46,1,1,2a1.34,1.34,0,0,0,1.49.6l6-1.81a1.63,1.63,0,0,1,1.61.52,22.38,22.38,0,0,0,3.44,3.44,1.63,1.63,0,0,1,.53,1.61l-1.81,6a1.33,1.33,0,0,0,.6,1.5,29.51,29.51,0,0,0,6,2.47,1.34,1.34,0,0,0,1.48-.63l2.95-5.52a1.65,1.65,0,0,1,1.51-.77,21.44,21.44,0,0,0,4.87,0,1.63,1.63,0,0,1,1.51.77l3,5.51a1.36,1.36,0,0,0,1.48.65c.7-.22,1.41-.44,2.1-.71.53-.19,1.39-.55,1.9-.78q1-.47,2-1A1.35,1.35,0,0,0,48.67,59.82ZM43.8,39.29A10.91,10.91,0,1,1,37.89,25,10.91,10.91,0,0,1,43.8,39.29Z" transform="translate(-5 -6.4)"/><path class="cls-1" d="M94.9,33.38a.72.72,0,0,0-.62-.61l-3.35-.33a.86.86,0,0,1-.69-.59,12.67,12.67,0,0,0-1-2.43.84.84,0,0,1,.07-.9l2.13-2.61a.74.74,0,0,0,0-.87c-.25-.3-.5-.6-.78-.89s-.56-.58-.78-.79-.59-.53-.9-.78a.72.72,0,0,0-.87,0l-2.6,2.13a.88.88,0,0,1-.91.07,11.42,11.42,0,0,0-2.42-1,.88.88,0,0,1-.59-.69l-.34-3.36a.73.73,0,0,0-.6-.62,16.86,16.86,0,0,0-3.48,0,.73.73,0,0,0-.6.62l-.34,3.36a.88.88,0,0,1-.59.69,11.42,11.42,0,0,0-2.42,1,.88.88,0,0,1-.91-.07l-2.6-2.13a.72.72,0,0,0-.87,0q-.46.38-.9.78c-.23.21-.57.56-.78.79s-.53.59-.78.89a.74.74,0,0,0,0,.87l2.13,2.61a.85.85,0,0,1,.07.91,11.51,11.51,0,0,0-1,2.42.85.85,0,0,1-.69.58l-3.35.34a.71.71,0,0,0-.62.61,16.6,16.6,0,0,0-.1,1.74c0,.59,0,1.16.09,1.73a.73.73,0,0,0,.63.61l3.35.33a.88.88,0,0,1,.69.6,11.45,11.45,0,0,0,1,2.42.88.88,0,0,1-.08.91l-2.13,2.6a.74.74,0,0,0,0,.87c.25.3.51.61.78.9s.56.57.78.78.59.53.9.78a.74.74,0,0,0,.87,0l2.6-2.13a.86.86,0,0,1,.91-.08,12,12,0,0,0,2.42,1,.86.86,0,0,1,.59.68l.34,3.36a.72.72,0,0,0,.6.62,16.87,16.87,0,0,0,3.48,0,.7.7,0,0,0,.6-.62l.34-3.36a.88.88,0,0,1,.59-.69,11.42,11.42,0,0,0,2.42-1,.88.88,0,0,1,.91.07l2.6,2.14a.74.74,0,0,0,.87,0q.47-.37.9-.78c.22-.21.58-.56.78-.78s.54-.6.78-.9a.72.72,0,0,0,0-.87l-2.13-2.61a.84.84,0,0,1-.07-.9,12,12,0,0,0,1-2.42.84.84,0,0,1,.69-.59l3.35-.34a.71.71,0,0,0,.62-.61,14.1,14.1,0,0,0,.1-1.73A16.6,16.6,0,0,0,94.9,33.38ZM78.92,41a5.88,5.88,0,1,1,5.87-5.87A5.89,5.89,0,0,1,78.92,41Z" transform="translate(-5 -6.4)"/><path class="cls-1" d="M91.23,68.6l-4.55-.46a1.19,1.19,0,0,1-.94-.8,16.06,16.06,0,0,0-1.36-3.29,1.19,1.19,0,0,1,.1-1.23l2.89-3.53a1,1,0,0,0,0-1.18c-.33-.42-.69-.83-1.06-1.22s-.76-.78-1.06-1.06-.8-.73-1.22-1.06a1,1,0,0,0-1.18,0l-3.53,2.89a1.19,1.19,0,0,1-1.23.1,15.61,15.61,0,0,0-3.29-1.36,1.19,1.19,0,0,1-.8-.94l-.46-4.55a1,1,0,0,0-.82-.84,21.49,21.49,0,0,0-4.72,0,1,1,0,0,0-.82.84l-.45,4.55a1.21,1.21,0,0,1-.81.94,15.75,15.75,0,0,0-3.28,1.36,1.19,1.19,0,0,1-1.23-.1l-3.54-2.89a1,1,0,0,0-1.18,0c-.41.34-.82.69-1.22,1.06s-.78.75-1.06,1.06-.72.8-1.06,1.22a1,1,0,0,0,0,1.18l2.89,3.53a1.18,1.18,0,0,1,.1,1.24A15.32,15.32,0,0,0,55,67.34a1.16,1.16,0,0,1-.94.8l-4.55.46a1,1,0,0,0-.84.82,21.49,21.49,0,0,0,0,4.72,1,1,0,0,0,.85.82l4.54.45a1.17,1.17,0,0,1,.94.81,15.75,15.75,0,0,0,1.36,3.28,1.2,1.2,0,0,1-.1,1.24l-2.89,3.53a1,1,0,0,0,0,1.18c.34.41.69.82,1.06,1.22s.76.78,1.06,1.06.81.72,1.22,1.06a1,1,0,0,0,1.18,0l3.54-2.89a1.18,1.18,0,0,1,1.23-.1,16.31,16.31,0,0,0,3.28,1.36,1.14,1.14,0,0,1,.8.94l.46,4.55a1,1,0,0,0,.82.84,20.36,20.36,0,0,0,2.36.13,22.85,22.85,0,0,0,2.36-.13,1,1,0,0,0,.83-.84L74,88.08a1.16,1.16,0,0,1,.8-.94,16.06,16.06,0,0,0,3.29-1.36,1.16,1.16,0,0,1,1.23.1l3.54,2.89a1,1,0,0,0,1.17,0c.42-.34.83-.69,1.22-1.06s.78-.76,1.07-1.06.72-.81,1-1.22a1,1,0,0,0,0-1.18l-2.9-3.54a1.19,1.19,0,0,1-.1-1.23,15.1,15.1,0,0,0,1.36-3.29,1.22,1.22,0,0,1,.94-.8L91.23,75a1,1,0,0,0,.85-.82,23.17,23.17,0,0,0,.13-2.36,22.84,22.84,0,0,0-.14-2.36A1,1,0,0,0,91.23,68.6ZM70.38,79.75a8,8,0,1,1,8-8A8,8,0,0,1,70.38,79.75Z" transform="translate(-5 -6.4)"/></svg>