<svg id="Layer_1" data-name="Layer 1" xmlns="http://www.w3.org/2000/svg" viewBox="0 0 24.95269 24.8905"><defs><style>.cls-1{fill:#666;}</style></defs><path class="cls-1" d="M12.44,3.98a8.47,8.47,0,1,0,3.82,16,3.54,3.54,0,0,1,1.21-3.76V5.83a1.09057,1.09057,0,0,1,0-.18A8.45,8.45,0,0,0,12.44,3.98Z" transform="translate(0)"/><path class="cls-1" d="M12.43,0a.54.54,0,0,0-.52.54h0V2.66a.53.53,0,0,0,1.06,0h0V.54A.54.54,0,0,0,12.45,0Z" transform="translate(0)"/><path class="cls-1" d="M4.01,3.49a.53.53,0,0,0-.53.53.52.52,0,0,0,.17.38L5.14,5.9a.53.53,0,1,0,.77-.68h0l-1.5-1.5A.53.53,0,0,0,4.01,3.49Z" transform="translate(0)"/><path class="cls-1" d="M.53,11.92a.53.53,0,0,0,0,1.06H2.65a.53.53,0,0,0,.001-1.06H.53Z" transform="translate(0)"/><path class="cls-1" d="M5.5,18.84a.52.52,0,0,0-.36.16L3.65,20.5a.51.51,0,0,0-.019.721l.019.019a.53.53,0,0,0,.74953.00047L4.4,21.24h0l1.5-1.49a.53.53,0,0,0,.00047-.74953L5.9,19A.5.5,0,0,0,5.5,18.84Z" transform="translate(0)"/><path class="cls-1" d="M12.43,21.71a.52.52,0,0,0-.5201.5199l.0001.0101h0v2.12a.53.53,0,0,0,1.06.001V24.36h0V22.22a.52.52,0,0,0-.5099-.52991L12.45,21.69Z" transform="translate(0)"/><path class="cls-1" d="M20.38,3.98a1.85,1.85,0,0,0-1.85,1.85h0V16.58a3.13,3.13,0,0,0-1.32,2.48,3.34,3.34,0,0,0,3.17,3.16,3.17,3.17,0,0,0,3.17-3.17l0-.01a3.27,3.27,0,0,0-1.34-2.46V5.83A1.85,1.85,0,0,0,20.38,3.98Zm0,1.32a.53.53,0,0,1,.53991.51991L20.92,5.83V18.15a1.06,1.06,0,1,1-1.06,0V5.83a.52.52,0,0,1,.50981-.53H20.38Z" transform="translate(0)"/><path class="cls-1" d="M23.55,6.63a.53.53,0,1,0,0,1.05h.8a.53.53,0,1,0,0-1.05Z" transform="translate(0)"/><path class="cls-1" d="M23.55,10.59a.53.53,0,0,0-.53.53h0a.53.53,0,0,0,.53.53h.8a.53.53,0,0,0,.53-.53h0a.53.53,0,0,0-.53-.53h-.8Z" transform="translate(0)"/><path class="cls-1" d="M23.55,14.56a.53.53,0,0,0,0,1.06h.8a.53.53,0,0,0,.001-1.06H23.55Z" transform="translate(0)"/></svg>