<?xml version="1.0" encoding="utf-8"?>
<!-- Generator: Adobe Illustrator 25.2.0, SVG Export Plug-In . SVG Version: 6.00 Build 0)  -->
<svg version="1.1" id="Layer_1" xmlns="http://www.w3.org/2000/svg" xmlns:xlink="http://www.w3.org/1999/xlink" x="0px" y="0px"
	 viewBox="0 0 48 60" style="enable-background:new 0 0 48 60;" xml:space="preserve">
<style type="text/css">
	.st0{fill:#666666;}
</style>
<g>
	<path class="st0" d="M6,26.5c-0.3,0-0.5,0.2-0.5,0.5v13c0,0.3,0.2,0.5,0.5,0.5h4c0.3,0,0.5-0.2,0.5-0.5V27c0-0.3-0.2-0.5-0.5-0.5H6
		z"/>
	<path class="st0" d="M14,18.5c-0.3,0-0.5,0.2-0.5,0.5v21c0,0.3,0.2,0.5,0.5,0.5h4c0.3,0,0.5-0.2,0.5-0.5V19c0-0.3-0.2-0.5-0.5-0.5
		H14z"/>
	<path class="st0" d="M22,40.5h4c0.3,0,0.5-0.2,0.5-0.5V24c0-0.3-0.2-0.5-0.5-0.5h-4c-0.3,0-0.5,0.2-0.5,0.5v16
		C21.5,40.3,21.7,40.5,22,40.5z"/>
	<path class="st0" d="M30,40.5h4c0.3,0,0.5-0.2,0.5-0.5V21c0-0.3-0.2-0.5-0.5-0.5h-4c-0.3,0-0.5,0.2-0.5,0.5v19
		C29.5,40.3,29.7,40.5,30,40.5z"/>
	<path class="st0" d="M38,13.5c-0.3,0-0.5,0.2-0.5,0.5v26c0,0.3,0.2,0.5,0.5,0.5h4c0.3,0,0.5-0.2,0.5-0.5V14c0-0.3-0.2-0.5-0.5-0.5
		H38z"/>
	<path class="st0" d="M44,41.5H4.5V6c0-0.3-0.2-0.5-0.5-0.5S3.5,5.7,3.5,6v36c0,0.3,0.2,0.5,0.5,0.5h40c0.3,0,0.5-0.2,0.5-0.5
		S44.3,41.5,44,41.5z"/>
	<path class="st0" d="M25.5,6.5c-3.4,0.3-6,3.1-6,6.5c0,1.6,0.6,3.1,1.6,4.2l4.4-4.4V6.5z"/>
	<path class="st0" d="M26.5,6.5v6h6C32.2,9.3,29.7,6.8,26.5,6.5z"/>
	<path class="st0" d="M32.5,13.5h-6.3l-4.4,4.4c1.1,1,2.6,1.6,4.2,1.6C29.4,19.5,32.2,16.9,32.5,13.5z"/>
</g>
</svg>
