<svg id="Layer_1" data-name="Layer 1" xmlns="http://www.w3.org/2000/svg" viewBox="0 0 41 37"><defs><style>.cls-1{fill:#fff;}</style></defs><path class="cls-1" d="M6,26.5a.5.5,0,0,0-.5.5V40a.5.5,0,0,0,.5.5h4a.5.5,0,0,0,.5-.5V27a.5.5,0,0,0-.5-.5Z" transform="translate(-3.5 -5.5)"/><path class="cls-1" d="M14,18.5a.5.5,0,0,0-.5.5V40a.5.5,0,0,0,.5.5h4a.5.5,0,0,0,.5-.5V19a.5.5,0,0,0-.5-.5Z" transform="translate(-3.5 -5.5)"/><path class="cls-1" d="M22,40.5h4a.5.5,0,0,0,.5-.5V24a.5.5,0,0,0-.5-.5H22a.5.5,0,0,0-.5.5V40A.5.5,0,0,0,22,40.5Z" transform="translate(-3.5 -5.5)"/><path class="cls-1" d="M30,40.5h4a.5.5,0,0,0,.5-.5V21a.5.5,0,0,0-.5-.5H30a.5.5,0,0,0-.5.5V40A.5.5,0,0,0,30,40.5Z" transform="translate(-3.5 -5.5)"/><path class="cls-1" d="M38,13.5a.5.5,0,0,0-.5.5V40a.5.5,0,0,0,.5.5h4a.5.5,0,0,0,.5-.5V14a.5.5,0,0,0-.5-.5Z" transform="translate(-3.5 -5.5)"/><path class="cls-1" d="M44,41.5H4.5V6a.5.5,0,0,0-1,0V42a.5.5,0,0,0,.5.5H44a.5.5,0,0,0,0-1Z" transform="translate(-3.5 -5.5)"/><path class="cls-1" d="M25.5,6.53a6.51,6.51,0,0,0-6,6.47,6.43,6.43,0,0,0,1.57,4.22l4.43-4.43Z" transform="translate(-3.5 -5.5)"/><path class="cls-1" d="M26.5,6.53v6h6A6.49,6.49,0,0,0,26.5,6.53Z" transform="translate(-3.5 -5.5)"/><path class="cls-1" d="M32.47,13.5H26.2l-4.43,4.43a6.49,6.49,0,0,0,10.7-4.43Z" transform="translate(-3.5 -5.5)"/></svg>