<svg xmlns="http://www.w3.org/2000/svg" viewBox="0 0 95 95"><defs><style>.cls-1{fill:#666;}</style></defs><g id="Layer_1" data-name="Layer 1"><path class="cls-1" d="M96.1,29,71,3.9a4.37,4.37,0,0,0-3.3-1.4H32.3A4.37,4.37,0,0,0,29,3.9L3.9,29a4.37,4.37,0,0,0-1.4,3.3V67.8A4.31,4.31,0,0,0,3.9,71L29,96.1a4.71,4.71,0,0,0,3.3,1.4H67.8a4.71,4.71,0,0,0,3.3-1.4L96.1,71a4.71,4.71,0,0,0,1.4-3.3V32.3A4.37,4.37,0,0,0,96.1,29ZM50,20.9A6.73,6.73,0,0,1,56.7,28L55.4,54A5.32,5.32,0,0,1,50,59.1,5.38,5.38,0,0,1,44.6,54L43.3,28A6.73,6.73,0,0,1,50,20.9Zm0,58.2A7.1,7.1,0,1,1,57.1,72,7.13,7.13,0,0,1,50,79.1Z" transform="translate(-2.5 -2.5)"/></g></svg>