<svg xmlns="http://www.w3.org/2000/svg" xmlns:xlink="http://www.w3.org/1999/xlink" version="1.1" x="0px" y="0px" viewBox="0 0 24 30" enable-background="new 0 0 24 24" xml:space="preserve"><g><path d="M1.136,23.9h17.667c0.221,0,0.4-0.179,0.4-0.4v-4.892h3.661c0.221,0,0.4-0.179,0.4-0.4v-7.167c0-0.221-0.18-0.4-0.4-0.4   h-3.661V0.5c0-0.221-0.18-0.4-0.4-0.4H8.355c-0.052,0-0.104,0.011-0.153,0.031C8.16,0.149,8.122,0.176,8.089,0.206   C8.084,0.211,8.077,0.212,8.072,0.217l-7.22,7.22C0.846,7.444,0.844,7.452,0.838,7.459C0.809,7.492,0.783,7.526,0.766,7.567   C0.746,7.616,0.735,7.668,0.735,7.72V23.5C0.735,23.721,0.915,23.9,1.136,23.9z M22.464,17.808H11.349v-6.367H18.8   c0.001,0,0.002,0,0.002,0s0.002,0,0.002,0h3.659V17.808z M18.402,10.642h-7.454c-0.221,0-0.4,0.179-0.4,0.4v7.167   c0,0.221,0.18,0.4,0.4,0.4h7.454V23.1H1.536V7.901C3.6,6.012,6.822,7.548,6.854,7.563C7.006,7.636,7.188,7.61,7.309,7.492   C7.43,7.375,7.465,7.195,7.396,7.041C7.381,7.007,5.925,3.643,8.534,0.9h9.868V10.642z M6.418,3.003   C6.025,4.41,6.197,5.716,6.396,6.525C5.632,6.274,4.424,6.009,3.191,6.231L6.418,3.003z"/><path d="M14.767,14.349c-0.138-0.073-0.352-0.143-0.64-0.211c-0.288-0.068-0.47-0.134-0.545-0.196   c-0.059-0.049-0.088-0.109-0.088-0.178c0-0.076,0.031-0.137,0.094-0.182c0.097-0.071,0.232-0.106,0.405-0.106   c0.167,0,0.292,0.033,0.376,0.099c0.083,0.066,0.138,0.175,0.163,0.325l0.593-0.026c-0.009-0.27-0.107-0.485-0.293-0.647   s-0.464-0.242-0.832-0.242c-0.226,0-0.418,0.034-0.578,0.102c-0.16,0.068-0.282,0.167-0.367,0.297s-0.127,0.27-0.127,0.42   c0,0.232,0.09,0.429,0.27,0.591c0.128,0.115,0.351,0.212,0.669,0.29c0.247,0.061,0.405,0.104,0.474,0.128   c0.101,0.036,0.173,0.078,0.214,0.127c0.041,0.049,0.061,0.108,0.061,0.177c0,0.108-0.048,0.203-0.145,0.283   c-0.097,0.081-0.241,0.121-0.432,0.121c-0.18,0-0.323-0.045-0.43-0.136c-0.106-0.091-0.177-0.233-0.211-0.427l-0.577,0.056   c0.039,0.328,0.158,0.578,0.357,0.75c0.199,0.172,0.484,0.257,0.855,0.257c0.255,0,0.468-0.036,0.639-0.107   c0.171-0.071,0.303-0.181,0.397-0.327c0.093-0.147,0.14-0.304,0.14-0.473c0-0.186-0.039-0.341-0.117-0.468   C15.014,14.522,14.905,14.422,14.767,14.349z"/><path d="M18.327,15.172c0.071-0.192,0.106-0.415,0.106-0.669c0-0.479-0.128-0.852-0.383-1.119s-0.6-0.4-1.035-0.4   c-0.439,0-0.787,0.133-1.043,0.4s-0.385,0.639-0.385,1.119c0,0.481,0.128,0.854,0.383,1.12c0.256,0.266,0.609,0.399,1.06,0.399   c0.234,0,0.447-0.042,0.639-0.126c0.244,0.164,0.376,0.251,0.395,0.26c0.085,0.047,0.173,0.084,0.262,0.11l0.218-0.419   c-0.171-0.061-0.329-0.144-0.475-0.248C18.188,15.461,18.273,15.318,18.327,15.172z M17.765,14.939   c-0.038,0.127-0.095,0.235-0.171,0.324c-0.178-0.134-0.364-0.234-0.559-0.3l-0.166,0.338c0.124,0.044,0.246,0.105,0.367,0.184   c-0.076,0.028-0.157,0.042-0.242,0.042c-0.23,0-0.42-0.085-0.57-0.255c-0.15-0.17-0.225-0.427-0.225-0.77   c0-0.338,0.075-0.591,0.225-0.759c0.15-0.168,0.346-0.252,0.588-0.252c0.242,0,0.437,0.084,0.587,0.251   c0.15,0.168,0.224,0.421,0.224,0.76C17.822,14.667,17.803,14.812,17.765,14.939z"/><polygon points="20.98,15.971 20.98,15.476 19.506,15.476 19.506,13.059 18.914,13.059 18.914,15.971  "/></g><text x="0" y="39" fill="#000000" font-size="5px" font-weight="bold" font-family="'Helvetica Neue', Helvetica, Arial-Unicode, Arial, Sans-serif">Created by Atif Arshad</text><text x="0" y="44" fill="#000000" font-size="5px" font-weight="bold" font-family="'Helvetica Neue', Helvetica, Arial-Unicode, Arial, Sans-serif">from the Noun Project</text></svg>