<svg xmlns="http://www.w3.org/2000/svg" xmlns:xlink="http://www.w3.org/1999/xlink" version="1.1" x="0px" y="0px" viewBox="0 0 64 80" style="enable-background:new 0 0 64 64;" xml:space="preserve"><g><path d="M60,23H42.722c-0.347-0.595-0.985-1-1.722-1v-5c0-4.624-3.507-8.441-8-8.941V8c0-0.551,0.449-1,1-1h26c1.654,0,3-1.346,3-3   s-1.346-3-3-3H13v2h47c0.551,0,1,0.449,1,1s-0.449,1-1,1H34c-1.654,0-3,1.346-3,3v0.059c-4.493,0.5-8,4.317-8,8.941v5   c-0.737,0-1.375,0.405-1.722,1H4c-1.654,0-3,1.346-3,3v2c0,1.302,0.839,2.402,2,2.816V58c0,2.757,2.243,5,5,5h48   c2.757,0,5-2.243,5-5V30.816c1.161-0.414,2-1.514,2-2.816v-2C63,24.346,61.654,23,60,23z M25,17c0-3.86,3.14-7,7-7s7,3.14,7,7v5H25   V17z M23,24h18l0.001,2H23V24z M37,28h2v5c0,0.552-0.449,1-1,1s-1-0.448-1-1V28z M25,28h2v5c0,0.552-0.449,1-1,1s-1-0.448-1-1V28z    M3,26c0-0.551,0.449-1,1-1h17v1c0,1.103,0.897,2,2,2v1H4c-0.551,0-1-0.449-1-1V26z M12.26,54.906l3.651,1.512l0.766-1.848   l-3.65-1.512c0.896-1.893,2.064-3.628,3.458-5.16l2.787,2.788l1.414-1.414l-2.787-2.788c1.532-1.394,3.267-2.561,5.16-3.457   l1.512,3.65l1.848-0.766l-1.512-3.651c1.919-0.692,3.964-1.108,6.094-1.209V45h2v-3.949c2.13,0.101,4.175,0.517,6.094,1.209   l-1.512,3.651l1.848,0.766l1.512-3.65c1.893,0.896,3.628,2.063,5.16,3.457l-2.787,2.788l1.414,1.414l2.787-2.788   c1.394,1.532,2.562,3.267,3.458,5.16l-3.65,1.512l0.766,1.848l3.651-1.512c0.692,1.919,1.108,3.964,1.209,6.094H38.92   c-0.339-2.352-1.848-4.326-3.92-5.315v-2.857c0-2.092-0.814-4.058-2.293-5.535L32,46.586l-0.707,0.707   C29.814,48.771,29,50.736,29,52.828v2.857c-2.072,0.989-3.581,2.963-3.92,5.315H11.051C11.152,58.87,11.568,56.825,12.26,54.906z    M33,55.08C32.672,55.033,32.34,55,32,55s-0.672,0.033-1,0.08v-2.252c0-1.183,0.35-2.311,1-3.268c0.65,0.957,1,2.085,1,3.268V55.08   z M32,57c2.414,0,4.434,1.721,4.899,4h-9.798C27.566,58.721,29.586,57,32,57z M56,61h-1.025C54.449,48.78,44.347,39,32,39   S9.551,48.78,9.025,61H8c-1.654,0-3-1.346-3-3V31h18v2c0,1.654,1.346,3,3,3s3-1.346,3-3v-5h6v5c0,1.654,1.346,3,3,3s3-1.346,3-3v-2   h18v27C59,59.654,57.654,61,56,61z M61,28c0,0.551-0.449,1-1,1H41v-1c1.103,0,2-0.897,2-2v-1h17c0.551,0,1,0.449,1,1V28z"/><path d="M45,42h12v-6H45V42z M47,38h8v2h-8V38z"/><path d="M16,33h-6v3H7v6h3v3h6v-3h3v-6h-3V33z M17,38v2h-3v3h-2v-3H9v-2h3v-3h2v3H17z"/></g><text x="0" y="79" fill="#000000" font-size="5px" font-weight="bold" font-family="'Helvetica Neue', Helvetica, Arial-Unicode, Arial, Sans-serif">Created by Eucalyp</text><text x="0" y="84" fill="#000000" font-size="5px" font-weight="bold" font-family="'Helvetica Neue', Helvetica, Arial-Unicode, Arial, Sans-serif">from the Noun Project</text></svg>