<svg xmlns="http://www.w3.org/2000/svg" xmlns:xlink="http://www.w3.org/1999/xlink" version="1.1" x="0px" y="0px" viewBox="0 0 100 125" enable-background="new 0 0 100 100" xml:space="preserve"><path d="M55.816,77.639c0,0.583-0.475,1.056-1.057,1.056H26.416V21.306H54.76c0.582,0,1.057,0.474,1.057,1.056v16.342h8.449V22.361  c0-5.242-4.264-9.506-9.506-9.506H17.789c-5.242,0-9.506,4.264-9.506,9.506v55.277c0,5.242,4.264,9.506,9.506,9.506H54.76  c5.242,0,9.506-4.264,9.506-9.506V61.297h-8.449V77.639z M73.543,31.827l-5.975,5.975l7.971,7.974H31.871v8.45h43.672L67.568,62.2  l5.975,5.975l18.174-18.174L73.543,31.827z"/><text x="0" y="115" fill="#000000" font-size="5px" font-weight="bold" font-family="'Helvetica Neue', Helvetica, Arial-Unicode, Arial, Sans-serif">Created by Chinnaking</text><text x="0" y="120" fill="#000000" font-size="5px" font-weight="bold" font-family="'Helvetica Neue', Helvetica, Arial-Unicode, Arial, Sans-serif">from the Noun Project</text></svg>