<svg xmlns="http://www.w3.org/2000/svg" viewBox="0 0 64 80" x="0px" y="0px"><g data-name="Electric Motor-electronics"><path d="M57,18H35V16h3a1,1,0,0,0,1-1V7a1,1,0,0,0-1-1H36V4a1,1,0,0,0-1-1H31a1,1,0,0,0-1,1V6H28V4a1,1,0,0,0-1-1H23a1,1,0,0,0-1,1V6H20a1,1,0,0,0-1,1v8a1,1,0,0,0,1,1h3v2H13a3,3,0,0,0-3,3v7H3a1,1,0,0,0-1,1v6a1,1,0,0,0,1,1h7v8a3,3,0,0,0,3,3h8v2H17a1,1,0,0,0-1,1v4a1,1,0,0,0,1,1H51a1,1,0,0,0,1-1V50a1,1,0,0,0-1-1H47V47H57a5.006,5.006,0,0,0,5-5V23A5.006,5.006,0,0,0,57,18ZM50,45H19V20H50ZM32,5h2V6H32ZM24,5h2V6H24ZM21,8H37v6H21Zm4,8h8v2H25ZM4,34V30h6v4ZM16,45H13a1,1,0,0,1-1-1V21a1,1,0,0,1,1-1h4V45Zm34,8H18V51H50Zm-5-4H23V47H45Zm15-7a3,3,0,0,1-3,3H52V20h5a3,3,0,0,1,3,3Z"/><rect x="54" y="23" width="4" height="2"/><rect x="54" y="27" width="4" height="2"/><path d="M22,22V42a1,1,0,0,0,1,1H46a1,1,0,0,0,1-1V22a1,1,0,0,0-1-1H23A1,1,0,0,0,22,22Zm2,7H45v6H24Zm0,8H45v1H24ZM45,27H24V26H45ZM24,41V40H45v1ZM45,23v1H24V23Z"/></g><text x="0" y="79" fill="#000000" font-size="5px" font-weight="bold" font-family="'Helvetica Neue', Helvetica, Arial-Unicode, Arial, Sans-serif">Created by ic2icon</text><text x="0" y="84" fill="#000000" font-size="5px" font-weight="bold" font-family="'Helvetica Neue', Helvetica, Arial-Unicode, Arial, Sans-serif">from the Noun Project</text></svg>