<svg xmlns="http://www.w3.org/2000/svg" xmlns:xlink="http://www.w3.org/1999/xlink" version="1.1" x="0px" y="0px" viewBox="0 0 24 30" enable-background="new 0 0 24 24" xml:space="preserve"><g><path d="M15.993,13.21c-0.11-0.029-0.345-0.044-0.706-0.044h-0.953v2.941h0.594v-1.109h0.387c0.269,0,0.474-0.014,0.616-0.042   c0.104-0.023,0.207-0.069,0.308-0.139c0.101-0.07,0.184-0.167,0.25-0.29c0.066-0.123,0.098-0.275,0.098-0.455   c0-0.234-0.057-0.425-0.17-0.573C16.302,13.35,16.161,13.254,15.993,13.21z M15.908,14.307c-0.045,0.066-0.107,0.114-0.186,0.144   c-0.079,0.031-0.235,0.046-0.469,0.046h-0.325v-0.834h0.287c0.214,0,0.356,0.007,0.427,0.02c0.096,0.017,0.176,0.061,0.239,0.13   c0.063,0.07,0.094,0.158,0.094,0.265C15.975,14.165,15.952,14.241,15.908,14.307z"/><polygon points="18.157,14.329 17.465,13.166 16.769,13.166 17.846,14.869 17.846,16.106 18.438,16.106 18.438,14.873    19.519,13.166 18.835,13.166  "/><path d="M1.135,23.9h17.667c0.221,0,0.4-0.179,0.4-0.4v-4.892h3.662c0.221,0,0.4-0.179,0.4-0.4v-7.167c0-0.221-0.18-0.4-0.4-0.4   h-3.662V0.5c0-0.221-0.18-0.4-0.4-0.4H8.355c-0.052,0-0.104,0.011-0.153,0.031c-0.043,0.018-0.08,0.045-0.113,0.075   C8.083,0.211,8.077,0.212,8.072,0.217l-7.22,7.22C0.845,7.444,0.843,7.452,0.837,7.459C0.809,7.492,0.783,7.526,0.766,7.567   C0.746,7.616,0.735,7.668,0.735,7.72V23.5C0.735,23.721,0.915,23.9,1.135,23.9z M22.464,17.808H11.348v-6.367H18.8   c0.001,0,0.002,0,0.002,0c0,0,0.002,0,0.002,0h3.66V17.808z M18.402,10.642h-7.454c-0.221,0-0.4,0.179-0.4,0.4v7.167   c0,0.221,0.18,0.4,0.4,0.4h7.454V23.1H1.536V7.902C3.6,6.012,6.821,7.548,6.855,7.563C7.007,7.636,7.187,7.61,7.309,7.492   c0.122-0.117,0.156-0.298,0.088-0.451C7.382,7.007,5.925,3.643,8.533,0.9h9.868V10.642z M6.418,3.003   C6.025,4.41,6.197,5.716,6.397,6.525C5.631,6.274,4.423,6.009,3.19,6.231L6.418,3.003z"/></g><text x="0" y="39" fill="#000000" font-size="5px" font-weight="bold" font-family="'Helvetica Neue', Helvetica, Arial-Unicode, Arial, Sans-serif">Created by Atif Arshad</text><text x="0" y="44" fill="#000000" font-size="5px" font-weight="bold" font-family="'Helvetica Neue', Helvetica, Arial-Unicode, Arial, Sans-serif">from the Noun Project</text></svg>