<svg xmlns="http://www.w3.org/2000/svg" data-name="Слой 1" viewBox="0 0 128 160" x="0px" y="0px"><title>ic_analytics_monitor</title><path d="M122,8H6a6,6,0,0,0-6,6V98a6,6,0,0,0,6,6H62v12H31a2,2,0,0,0,0,4H97a2,2,0,0,0,0-4H66V104h56a6,6,0,0,0,6-6V14A6,6,0,0,0,122,8Zm2,90a2,2,0,0,1-2,2H6a2,2,0,0,1-2-2V14a2,2,0,0,1,2-2H122a2,2,0,0,1,2,2Z"/><path d="M44,62H10a2,2,0,0,0,0,4H44a2,2,0,0,0,0-4Z"/><path d="M10,76H31.53a2,2,0,0,0,0-4H10a2,2,0,0,0,0,4Z"/><path d="M52,16a2,2,0,0,0-2,2V94a2,2,0,0,0,4,0V18A2,2,0,0,0,52,16Z"/><path d="M118,16H60a2,2,0,0,0-2,2V51a2,2,0,0,0,2,2h58a2,2,0,0,0,2-2V18A2,2,0,0,0,118,16Zm-2,4v3l-10.35,6.85L95.53,27.07a2,2,0,0,0-1.94.52L83.53,37.64,72.77,33.15a2,2,0,0,0-2,.24L62,39.87V20ZM62,49V44.84l10.27-7.56,11,4.57a2,2,0,0,0,2.18-.44L95.59,31.23l9.88,2.7a2,2,0,0,0,1.63-.26l8.9-5.89V49Z"/><path d="M44,82H10a2,2,0,0,0-2,2V94a2,2,0,0,0,2,2H44a2,2,0,0,0,2-2V84A2,2,0,0,0,44,82ZM42,92H12V86H42Z"/><path d="M120,67a8,8,0,0,0-15.51-2.74l-7.63-.75A8,8,0,0,0,81,65a7.81,7.81,0,0,0,.15,1.54l-9,4.32A8,8,0,1,0,64,83.74V92H60a2,2,0,0,0,0,4h58a2,2,0,0,0,0-4h-4V74.74A8,8,0,0,0,120,67Zm-8-4a4,4,0,1,1-4,4A4,4,0,0,1,112,63ZM89,61a4,4,0,1,1-4,4A4,4,0,0,1,89,61ZM62,76a4,4,0,1,1,4,4A4,4,0,0,1,62,76Zm6,7.74A8,8,0,0,0,74,76a7.81,7.81,0,0,0-.15-1.54l9-4.32A8.05,8.05,0,0,0,87,72.74V92H68ZM91,92V72.74a8,8,0,0,0,5.59-5.24l7.52.74a8,8,0,0,0,5.89,6.5V92Z"/><path d="M40,16H14a6,6,0,0,0-6,6V47a6,6,0,0,0,6,6H40a6,6,0,0,0,6-6V22A6,6,0,0,0,40,16Zm2,31a2,2,0,0,1-2,2H14a2,2,0,0,1-2-2V22a2,2,0,0,1,2-2H40a2,2,0,0,1,2,2Z"/><path d="M35,32.26,20.66,24.1a2,2,0,0,0-3,1.73V42.17a2,2,0,0,0,2,2,2,2,0,0,0,1-.27L35,35.74a2,2,0,0,0,0-3.48ZM21.67,38.73V29.27L30,34Z"/><text x="0" y="143" fill="#000000" font-size="5px" font-weight="bold" font-family="'Helvetica Neue', Helvetica, Arial-Unicode, Arial, Sans-serif">Created by LAFS</text><text x="0" y="148" fill="#000000" font-size="5px" font-weight="bold" font-family="'Helvetica Neue', Helvetica, Arial-Unicode, Arial, Sans-serif">from the Noun Project</text></svg>