<svg xmlns="http://www.w3.org/2000/svg" xmlns:xlink="http://www.w3.org/1999/xlink" version="1.1" x="0px" y="0px" viewBox="0 0 24 30" enable-background="new 0 0 24 24" xml:space="preserve"><g><path d="M8.433,10.756c-0.221,0-0.4,0.179-0.4,0.4v2.203c0,0.221,0.18,0.4,0.4,0.4s0.4-0.179,0.4-0.4v-2.203   C8.833,10.935,8.654,10.756,8.433,10.756z"/><path d="M15.625,10.756c-0.221,0-0.4,0.179-0.4,0.4v2.203c0,0.221,0.18,0.4,0.4,0.4s0.4-0.179,0.4-0.4v-2.203   C16.025,10.935,15.845,10.756,15.625,10.756z"/><path d="M13.562,10.756h-3.066c-0.221,0-0.4,0.179-0.4,0.4v2.203c0,0.221,0.18,0.4,0.4,0.4h3.066c0.221,0,0.4-0.179,0.4-0.4v-2.203   C13.962,10.935,13.783,10.756,13.562,10.756z M13.162,12.959h-2.266v-1.403h2.266V12.959z"/><path d="M8.433,6.025c0.221,0,0.4-0.179,0.4-0.4V3.421c0-0.221-0.18-0.4-0.4-0.4s-0.4,0.179-0.4,0.4v2.204   C8.033,5.846,8.212,6.025,8.433,6.025z"/><path d="M10.604,6.025c0.221,0,0.4-0.179,0.4-0.4V3.421c0-0.221-0.18-0.4-0.4-0.4s-0.4,0.179-0.4,0.4v2.204   C10.204,5.846,10.383,6.025,10.604,6.025z"/><path d="M15.629,3.021h-3.066c-0.221,0-0.4,0.179-0.4,0.4v2.204c0,0.221,0.18,0.4,0.4,0.4h3.066c0.221,0,0.4-0.179,0.4-0.4V3.421   C16.03,3.201,15.85,3.021,15.629,3.021z M15.229,5.225h-2.266V3.821h2.266V5.225z"/><path d="M15.629,6.592c-0.221,0-0.4,0.179-0.4,0.4v2.204c0,0.221,0.18,0.4,0.4,0.4s0.4-0.179,0.4-0.4V6.992   C16.03,6.771,15.85,6.592,15.629,6.592z"/><path d="M13.858,9.195V6.992c0-0.221-0.18-0.4-0.4-0.4s-0.4,0.179-0.4,0.4v2.204c0,0.221,0.18,0.4,0.4,0.4   S13.858,9.416,13.858,9.195z"/><path d="M11.9,9.195V6.992c0-0.221-0.18-0.4-0.4-0.4H8.433c-0.221,0-0.4,0.179-0.4,0.4v2.204c0,0.221,0.18,0.4,0.4,0.4H11.5   C11.72,9.595,11.9,9.416,11.9,9.195z M11.099,8.795H8.833V7.392h2.266V8.795z"/><path d="M3.167,0.1c-0.221,0-0.4,0.179-0.4,0.4v15.78c0,0.052,0.011,0.104,0.031,0.153c0.017,0.041,0.043,0.076,0.072,0.108   c0.006,0.007,0.008,0.015,0.014,0.022l7.22,7.22c0.005,0.005,0.011,0.006,0.017,0.011c0.034,0.031,0.071,0.057,0.113,0.075   c0.049,0.02,0.101,0.031,0.153,0.031h10.447c0.221,0,0.4-0.179,0.4-0.4v-9.708v-0.834V0.5c0-0.221-0.18-0.4-0.4-0.4H3.167z    M5.221,17.769c1.233,0.221,2.442-0.043,3.206-0.295c-0.199,0.81-0.371,2.115,0.022,3.522L5.221,17.769z M20.433,23.1h-9.869   c-2.599-2.73-1.199-6.002-1.137-6.142c0.068-0.154,0.033-0.334-0.088-0.451c-0.121-0.117-0.302-0.145-0.454-0.071   c-0.033,0.016-3.254,1.553-5.318-0.338V0.9h16.866v12.058v0.834V23.1z"/></g><text x="0" y="39" fill="#000000" font-size="5px" font-weight="bold" font-family="'Helvetica Neue', Helvetica, Arial-Unicode, Arial, Sans-serif">Created by Atif Arshad</text><text x="0" y="44" fill="#000000" font-size="5px" font-weight="bold" font-family="'Helvetica Neue', Helvetica, Arial-Unicode, Arial, Sans-serif">from the Noun Project</text></svg>