<svg xmlns:dc="http://purl.org/dc/elements/1.1/" xmlns:cc="http://creativecommons.org/ns#" xmlns:rdf="http://www.w3.org/1999/02/22-rdf-syntax-ns#" xmlns:svg="http://www.w3.org/2000/svg" xmlns="http://www.w3.org/2000/svg" xmlns:sodipodi="http://sodipodi.sourceforge.net/DTD/sodipodi-0.dtd" xmlns:inkscape="http://www.inkscape.org/namespaces/inkscape" version="1.1" x="0px" y="0px" viewBox="0 0 100 125"><g transform="translate(0,-952.36218)"><path style="font-size:medium;font-style:normal;font-variant:normal;font-weight:normal;font-stretch:normal;text-indent:0;text-align:start;text-decoration:none;line-height:normal;letter-spacing:normal;word-spacing:normal;text-transform:none;direction:ltr;block-progression:tb;writing-mode:lr-tb;text-anchor:start;baseline-shift:baseline;opacity:1;color:#000000;fill:#000000;fill-opacity:1;stroke:none;stroke-width:3.99999927999999990;marker:none;visibility:visible;display:inline;overflow:visible;enable-background:accumulate;font-family:Sans;-inkscape-font-specification:Sans" d="M 24 6 C 19.605412 6 16 9.60541 16 14 C 16 18.39459 19.605412 22 24 22 C 28.394588 22 32 18.39459 32 14 C 32 9.60541 28.394588 6 24 6 z M 44 6 C 39.605412 6 36 9.60541 36 14 C 36 18.39459 39.605412 22 44 22 C 48.394588 22 52 18.39459 52 14 C 52 9.60541 48.394588 6 44 6 z M 64 6 C 59.605408 6 56 9.60542 56 14 C 56 18.39458 59.605408 22 64 22 C 68.394592 22 72 18.39458 72 14 C 72 9.60542 68.394592 6 64 6 z M 24 10 C 26.232828 10 28 11.76717 28 14 C 28 16.23283 26.232828 18 24 18 C 21.76717 18 20 16.23283 20 14 C 20 11.76717 21.76717 10 24 10 z M 44 10 C 46.232828 10 48 11.76717 48 14 C 48 16.23283 46.232828 18 44 18 C 41.76717 18 40 16.23283 40 14 C 40 11.76717 41.76717 10 44 10 z M 64 10 C 66.232826 10 68 11.76718 68 14 C 68 16.23282 66.232826 18 64 18 C 61.767176 18 60 16.23282 60 14 C 60 11.76718 61.767176 10 64 10 z M 44 25 C 39.602595 25 36 28.60259 36 33 L 36 66.25 C 35.745337 66.171 35.774595 66.17505 35.5 66.09375 C 33.743787 65.57525 31.770199 65 30 65 C 27.736241 65 25.648932 65.7307 24.1875 67.1875 C 22.726068 68.6442 22 70.7211 22 73 A 2.0001998 2.0001998 0 0 0 22.6875 74.5 L 39 88.90625 L 39 92 A 2.0001998 2.0001998 0 0 0 41 94 L 69 94 A 2.0001998 2.0001998 0 0 0 70.40625 93.40625 C 77.681591 86.13095 84 75.7185 84 65 A 2.0001998 2.0001998 0 0 0 83.59375 63.78125 C 77.083022 55.41035 66.536467 49.58885 54.71875 48.28125 L 51.96875 32.6875 C 51.96725 32.6775 51.97035 32.66625 51.96875 32.65625 C 51.659659 30.68139 50.874247 28.8387 49.53125 27.40625 C 48.181437 25.96648 46.206458 25 44 25 z M 24 26 C 19.605412 26 16 29.60541 16 34 C 16 38.39459 19.605412 42 24 42 C 28.394588 42 32 38.39459 32 34 C 32 29.60541 28.394588 26 24 26 z M 64 26 C 59.605412 26 56 29.60541 56 34 C 56 38.39459 59.605412 42 64 42 C 68.394588 42 72 38.39459 72 34 C 72 29.60541 68.394588 26 64 26 z M 44 29 C 45.117542 29 45.900948 29.38605 46.59375 30.125 C 47.286552 30.86395 47.831322 32.01323 48.03125 33.3125 A 2.0001998 2.0001998 0 0 0 48.03125 33.34375 L 51.03125 50.34375 A 2.0001998 2.0001998 0 0 0 52.84375 52 C 63.91294 52.8217 73.810111 58.2027 79.90625 65.6875 C 79.64064 74.3532 74.418303 83.4706 68.09375 90 L 43 90 L 43 88 A 2.0001998 2.0001998 0 0 0 42.3125 86.5 L 26.125 72.21875 C 26.255587 71.24615 26.553843 70.4759 27.03125 70 C 27.639936 69.3932 28.544228 69 30 69 C 30.683329 69 32.713345 69.42485 34.34375 69.90625 C 35.974155 70.38775 37.3125 70.875 37.3125 70.875 A 2.0001998 2.0001998 0 0 0 40 69 L 40 33 C 40 30.7494 41.749405 29 44 29 z M 24 30 C 26.232828 30 28 31.76717 28 34 C 28 36.23283 26.232828 38 24 38 C 21.76717 38 20 36.23283 20 34 C 20 31.76717 21.76717 30 24 30 z M 64 30 C 66.23283 30 68 31.76717 68 34 C 68 36.23283 66.23283 38 64 38 C 61.767172 38 60 36.23283 60 34 C 60 31.76717 61.767172 30 64 30 z M 24 46 C 19.605408 46 16 49.6054 16 54 C 16 58.3946 19.605408 62 24 62 C 28.394592 62 32 58.3946 32 54 C 32 49.6054 28.394592 46 24 46 z M 24 50 C 26.232824 50 28 51.7672 28 54 C 28 56.2328 26.232824 58 24 58 C 21.767174 58 20 56.2328 20 54 C 20 51.7672 21.767174 50 24 50 z " transform="translate(0,952.36218)"/></g><text x="0" y="115" fill="#000000" font-size="5px" font-weight="bold" font-family="'Helvetica Neue', Helvetica, Arial-Unicode, Arial, Sans-serif">Created by pictohaven</text><text x="0" y="120" fill="#000000" font-size="5px" font-weight="bold" font-family="'Helvetica Neue', Helvetica, Arial-Unicode, Arial, Sans-serif">from the Noun Project</text></svg>