<?xml version="1.0" encoding="utf-8"?>
<!-- Generator: Adobe Illustrator 25.2.1, SVG Export Plug-In . SVG Version: 6.00 Build 0)  -->
<svg version="1.1" id="Layer_1" xmlns="http://www.w3.org/2000/svg" xmlns:xlink="http://www.w3.org/1999/xlink" x="0px" y="0px"
	 viewBox="0 0 24 30" style="enable-background:new 0 0 24 30;" xml:space="preserve">
<g>
	<path d="M15,15.2c0.1-0.2,0.1-0.4,0.1-0.7c0-0.5-0.1-0.9-0.4-1.1c-0.3-0.3-0.6-0.4-1-0.4c-0.4,0-0.8,0.1-1,0.4
		c-0.3,0.3-0.4,0.6-0.4,1.1c0,0.5,0.1,0.9,0.4,1.1c0.3,0.3,0.6,0.4,1.1,0.4c0.2,0,0.4,0,0.6-0.1c0.2,0.2,0.4,0.3,0.4,0.3
		c0.1,0,0.2,0.1,0.3,0.1l0.2-0.4c-0.2-0.1-0.3-0.1-0.5-0.2C14.9,15.5,15,15.3,15,15.2z M14.4,15c0,0.1-0.1,0.2-0.2,0.3
		c-0.2-0.1-0.4-0.2-0.6-0.3l-0.2,0.3c0.1,0,0.2,0.1,0.4,0.2c-0.1,0-0.2,0-0.2,0c-0.2,0-0.4-0.1-0.6-0.3s-0.2-0.4-0.2-0.8
		c0-0.3,0.1-0.6,0.2-0.8c0.1-0.2,0.3-0.3,0.6-0.3c0.2,0,0.4,0.1,0.6,0.3c0.1,0.2,0.2,0.4,0.2,0.8C14.5,14.7,14.5,14.8,14.4,15z"/>
	<polygon points="17.1,15.1 16.6,13.2 15.7,13.2 15.7,16.1 16.2,16.1 16.2,13.8 16.8,16.1 17.4,16.1 17.9,13.8 17.9,16.1 18.5,16.1 
		18.5,13.2 17.6,13.2 	"/>
	<polygon points="21.1,16.1 21.1,15.6 19.6,15.6 19.6,13.2 19,13.2 19,16.1 	"/>
	<path d="M1.1,23.9h17.7c0.2,0,0.4-0.2,0.4-0.4v-4.9h3.7c0.2,0,0.4-0.2,0.4-0.4V11c0-0.2-0.2-0.4-0.4-0.4h-3.7V0.5
		c0-0.2-0.2-0.4-0.4-0.4H8.4c-0.1,0-0.1,0-0.2,0c0,0-0.1,0-0.1,0.1c0,0,0,0,0,0L0.9,7.4c0,0,0,0,0,0c0,0-0.1,0.1-0.1,0.1
		c0,0,0,0.1,0,0.2v15.8C0.7,23.7,0.9,23.9,1.1,23.9z M22.5,17.8H11.3v-6.4h7.5c0,0,0,0,0,0h0h3.7L22.5,17.8L22.5,17.8z M18.4,10.6
		h-7.5c-0.2,0-0.4,0.2-0.4,0.4v7.2c0,0.2,0.2,0.4,0.4,0.4h7.5v4.5H1.5V7.9C3.6,6,6.8,7.5,6.9,7.6c0.2,0.1,0.3,0,0.5-0.1
		C7.4,7.4,7.5,7.2,7.4,7c0,0-1.5-3.4,1.1-6.1h9.9V10.6z M6.4,3C6,4.4,6.2,5.7,6.4,6.5C5.6,6.3,4.4,6,3.2,6.2L6.4,3z"/>
</g>
<text transform="matrix(1 0 0 1 0 39)" style="font-family:'NimbusSanL-BoldCond'; font-size:5px;">Created by Atif Arshad</text>
<text transform="matrix(1 0 0 1 0 44)" style="font-family:'NimbusSanL-BoldCond'; font-size:5px;">from the Noun Project</text>
</svg>
