<svg xmlns:dc="http://purl.org/dc/elements/1.1/" xmlns:cc="http://creativecommons.org/ns#" xmlns:rdf="http://www.w3.org/1999/02/22-rdf-syntax-ns#" xmlns:svg="http://www.w3.org/2000/svg" xmlns="http://www.w3.org/2000/svg" xmlns:sodipodi="http://sodipodi.sourceforge.net/DTD/sodipodi-0.dtd" xmlns:inkscape="http://www.inkscape.org/namespaces/inkscape" version="1.1" x="0px" y="0px" viewBox="0 0 32 40" enable-background="new 0 0 32 32" xml:space="preserve"><polygon style="" points="18.71,17.29 18,18 17,17 18,16 17,15 18,14 18.71,14.71 18.41,15 19.41,16 18.41,17 " fill="#000000"/><path style="" d="M 18 11.75 C 16.915 11.75 15.83 12.17 15 13 L 10.5 13 C 10.22 13 10 13.22 10 13.5 L 10 14 L 9 14 L 9 15 L 10 15 L 10 17 L 9 17 L 9 18 L 10 18 L 10 18.5 C 10 18.78 10.22 19 10.5 19 L 15 19 C 16.66 20.66 19.34 20.66 21 19 C 22.66 17.34 22.66 14.66 21 13 C 20.17 12.17 19.085 11.75 18 11.75 z M 17.6875 12.78125 C 18.724707 12.680557 19.7875 13.068125 20.5 13.9375 C 21.64 15.3175 21.4425 17.361 20.0625 18.5 C 18.6725 19.64 16.64 19.4535 15.5 18.0625 L 15.5 13.9375 C 15.63 13.7775 15.7885 13.63 15.9375 13.5 C 16.45875 13.0725 17.065176 12.841666 17.6875 12.78125 z M 11 14 L 14.5 14 L 14.5 18 L 11 18 L 11 14 z " fill="#000000"/><path style="" d="m 24.25,28.89 c 0.19,0.16 0.47,0.15 0.64,-0.04 C 24.96,28.77 25,28.661 25,28.55 V 3.45 C 25,3.2 24.8,3 24.55,3 24.441,3 24.33,3.04 24.25,3.11 l -8.3,7.38 C 15.58,10.82 15.11,11 14.62,11 H 8 c -0.55,0 -1,0.45 -1,1 v 8 c 0,0.55 0.45,1 1,1 h 6.62 c 0.49,0 0.96,0.18 1.33,0.51 l 8.3,7.38 z M 26,3.45 v 25.1 c 0,0.36 -0.13,0.7 -0.37,0.96 -0.53,0.601 -1.439,0.66 -2.04,0.12 L 15.28,22.25 C 15.1,22.09 14.86,22 14.62,22 H 8 C 6.9,22 6,21.1 6,20 v -8 c 0,-1.1 0.9,-2 2,-2 h 6.62 c 0.24,0 0.479,-0.09 0.66,-0.25 L 23.59,2.37 C 23.85,2.13 24.2,2 24.55,2 25.35,2 26,2.65 26,3.45 z" fill="#000000"/><text x="0" y="47" fill="#000000" font-size="5px" font-weight="bold" font-family="'Helvetica Neue', Helvetica, Arial-Unicode, Arial, Sans-serif">Created by Pham Duy Phuong Hung</text><text x="0" y="52" fill="#000000" font-size="5px" font-weight="bold" font-family="'Helvetica Neue', Helvetica, Arial-Unicode, Arial, Sans-serif">from the Noun Project</text></svg>