<svg xmlns="http://www.w3.org/2000/svg" xmlns:xlink="http://www.w3.org/1999/xlink" version="1.1" x="0px" y="0px" viewBox="0 0 24 30" enable-background="new 0 0 24 24" xml:space="preserve"><g><polygon points="13.729,14.797 15.166,14.797 15.166,14.315 13.729,14.315 13.729,13.681 15.273,13.681 15.273,13.197    13.151,13.197 13.151,16.058 15.328,16.058 15.328,15.576 13.729,15.576  "/><polygon points="18.1,13.197 17.43,13.197 16.868,14.116 16.294,13.197 15.619,13.197 16.505,14.565 15.527,16.058 16.22,16.058    16.857,15.068 17.491,16.058 18.188,16.058 17.21,14.586  "/><polygon points="19.062,14.797 20.499,14.797 20.499,14.315 19.062,14.315 19.062,13.681 20.606,13.681 20.606,13.197    18.484,13.197 18.484,16.058 20.661,16.058 20.661,15.576 19.062,15.576  "/><path d="M1.136,23.9h17.667c0.221,0,0.4-0.179,0.4-0.4v-4.892h3.661c0.221,0,0.4-0.179,0.4-0.4v-7.167c0-0.221-0.18-0.4-0.4-0.4   h-3.661V0.5c0-0.221-0.18-0.4-0.4-0.4H8.355c-0.052,0-0.104,0.011-0.153,0.031C8.16,0.149,8.122,0.176,8.089,0.206   C8.084,0.211,8.077,0.212,8.072,0.217l-7.22,7.22C0.846,7.444,0.844,7.452,0.838,7.459C0.809,7.492,0.783,7.526,0.766,7.567   C0.746,7.616,0.735,7.668,0.735,7.72V23.5C0.735,23.721,0.915,23.9,1.136,23.9z M22.464,17.808H11.349v-6.367H18.8   c0.001,0,0.002,0,0.002,0s0.002,0,0.002,0h3.659V17.808z M18.402,10.642h-7.454c-0.221,0-0.4,0.179-0.4,0.4v7.167   c0,0.221,0.18,0.4,0.4,0.4h7.454V23.1H1.536V7.901C3.6,6.012,6.821,7.548,6.854,7.563C7.007,7.636,7.188,7.61,7.309,7.492   C7.43,7.375,7.465,7.195,7.396,7.041C7.381,7.007,5.925,3.643,8.534,0.9h9.868V10.642z M6.418,3.003   C6.025,4.41,6.197,5.716,6.396,6.525C5.632,6.274,4.424,6.009,3.191,6.231L6.418,3.003z"/></g><text x="0" y="39" fill="#000000" font-size="5px" font-weight="bold" font-family="'Helvetica Neue', Helvetica, Arial-Unicode, Arial, Sans-serif">Created by Atif Arshad</text><text x="0" y="44" fill="#000000" font-size="5px" font-weight="bold" font-family="'Helvetica Neue', Helvetica, Arial-Unicode, Arial, Sans-serif">from the Noun Project</text></svg>